<svg xmlns="http://www.w3.org/2000/svg" viewBox="0 0 420 540" width="420" height="540">
  <defs>
    <filter id="r1013" x="-15%" y="-15%" width="130%" height="130%">
      <feTurbulence type="fractalNoise" baseFrequency="0.0228" numOctaves="3" seed="1013" result="n"/>
      <feDisplacementMap in="SourceGraphic" in2="n" scale="12.2" xChannelSelector="R" yChannelSelector="G"/>
    </filter>
  </defs>
  <g fill="#16120d" filter="url(#r1013)">
<path d="M282.1,160.7C283.4,167.5 286.6,175.5 285.4,182.9C284.2,190.4 280.4,199.9 274.8,205.2C269.1,210.6 259.7,213.1 251.6,215.1C243.5,217.2 234.1,219.5 226.2,217.8C218.2,216.1 207.2,211.8 203.9,204.9C200.7,198.0 209.7,183.8 206.5,176.4C203.3,169.1 188.4,167.6 185.0,160.7C181.5,153.8 179.6,138.7 185.6,134.9C191.6,131.0 213.4,139.1 221.0,137.9C228.7,136.6 227.4,128.6 231.6,127.3C235.8,125.9 241.0,129.2 246.3,129.7C251.6,130.2 258.2,128.2 263.4,130.3C268.6,132.4 274.4,137.2 277.5,142.3C280.6,147.3 280.8,153.9 282.1,160.7Z"/><path d="M220.7,107.2C219.7,111.1 216.9,111.4 214.4,116.0C211.8,120.6 208.7,134.7 205.6,134.9C202.4,135.1 199.0,121.9 195.5,117.3C192.0,112.7 184.9,111.1 184.4,107.2C183.9,103.3 188.8,97.3 192.3,94.0C195.9,90.7 200.9,87.8 205.6,87.5C210.2,87.3 217.7,89.3 220.2,92.6C222.7,95.9 221.6,103.3 220.7,107.2Z"/><path d="M309.5,134.2C308.1,137.8 296.0,137.4 292.0,140.8C288.0,144.2 288.5,153.7 285.4,154.5C282.4,155.4 275.5,149.3 273.8,145.9C272.0,142.5 275.9,139.0 275.0,134.2C274.1,129.5 266.9,120.3 268.6,117.4C270.3,114.5 280.2,116.5 285.4,116.8C290.7,117.2 296.2,116.5 300.2,119.4C304.2,122.3 310.9,130.7 309.5,134.2Z"/><path d="M291.1,147.9C290.7,151.0 289.2,154.4 287.2,156.2C285.1,158.0 281.2,158.9 278.8,158.5C276.4,158.1 275.1,155.7 272.7,153.9C270.3,152.1 266.5,152.0 264.4,147.9C262.3,143.7 257.7,132.0 260.1,129.2C262.5,126.3 273.9,129.6 278.8,130.9C283.7,132.3 287.5,134.3 289.6,137.1C291.6,139.9 291.5,144.7 291.1,147.9Z"/><path d="M300.0,140.9C298.8,146.0 304.0,150.3 302.4,152.8C300.9,155.2 293.5,156.6 290.5,155.6C287.6,154.6 286.5,149.2 284.6,146.8C282.8,144.3 281.6,144.8 279.7,140.9C277.7,136.9 271.0,127.2 272.8,123.1C274.6,119.1 284.5,116.5 290.5,116.4C296.6,116.2 307.5,118.2 309.1,122.3C310.7,126.4 301.1,135.8 300.0,140.9Z"/><path d="M349.5,346.2C349.5,359.7 338.1,374.9 329.3,386.9C320.5,399.0 308.2,418.2 296.6,418.2C285.0,418.3 271.3,393.7 259.9,387.2C248.5,380.6 235.8,385.8 228.1,378.9C220.5,372.1 216.4,358.8 214.1,346.2C211.7,333.6 206.6,310.8 213.9,303.1C221.3,295.5 244.3,305.4 258.2,300.2C272.1,294.9 285.7,270.6 297.5,271.5C309.3,272.4 320.4,293.2 329.0,305.6C337.7,318.1 349.4,332.6 349.5,346.2Z"/><path d="M234.7,308.9C233.9,313.9 221.5,318.2 216.4,321.2C211.3,324.2 209.4,325.8 204.1,326.9C198.9,328.0 190.6,331.0 185.1,328.0C179.5,325.0 170.6,315.0 170.8,308.9C171.1,302.8 181.0,296.9 186.6,291.4C192.1,285.8 198.3,275.3 204.1,275.4C210.0,275.4 216.5,285.9 221.6,291.5C226.7,297.1 235.6,304.0 234.7,308.9Z"/><path d="M356.9,354.9C359.6,360.2 366.3,376.9 363.4,379.2C360.4,381.4 345.0,370.6 339.1,368.4C333.2,366.2 333.7,368.1 328.1,365.8C322.6,363.5 305.7,358.4 305.8,354.9C305.9,351.3 323.2,350.2 328.8,344.6C334.4,338.9 336.1,320.5 339.1,320.9C342.1,321.3 343.9,341.5 346.8,347.1C349.8,352.8 354.1,349.5 356.9,354.9Z"/><path d="M240.7,320.2C240.2,326.0 244.8,331.4 242.4,336.3C240.0,341.2 230.6,350.7 226.3,349.6C221.9,348.6 219.2,334.9 216.4,330.0C213.7,325.1 211.5,324.9 210.0,320.2C208.5,315.4 204.9,307.5 207.6,301.5C210.3,295.6 220.0,284.4 226.3,284.3C232.5,284.3 242.7,295.4 245.1,301.4C247.5,307.3 241.1,314.3 240.7,320.2Z"/><path d="M365.3,379.5C365.1,387.7 364.2,397.9 359.3,403.3C354.3,408.6 342.9,412.1 335.6,411.5C328.2,410.9 320.4,405.2 315.2,399.9C310.0,394.6 304.5,386.5 304.3,379.5C304.1,372.6 308.7,360.7 313.9,357.9C319.1,355.1 327.8,363.2 335.6,362.7C343.3,362.1 355.5,351.8 360.5,354.6C365.4,357.4 365.5,371.4 365.3,379.5Z"/><path d="M264.4,173.9 L302.4,193.9" stroke="#16120d" stroke-width="1.66" stroke-linecap="round" fill="none"/><circle cx="302.4" cy="193.9" r="1.33"/><path d="M214.3,147.0 L131.8,101.5" stroke="#16120d" stroke-width="1.39" stroke-linecap="round" fill="none"/><circle cx="131.8" cy="101.5" r="0.81"/><path d="M264.6,173.5 L347.6,215.3" stroke="#16120d" stroke-width="1.17" stroke-linecap="round" fill="none"/><circle cx="347.6" cy="215.3" r="0.84"/><path d="M210.8,159.6 L134.6,156.7" stroke="#16120d" stroke-width="2.18" stroke-linecap="round" fill="none"/><circle cx="134.6" cy="156.7" r="1.93"/><path d="M241.9,189.0 L255.2,327.1" stroke="#16120d" stroke-width="1.32" stroke-linecap="round" fill="none"/><circle cx="255.2" cy="327.1" r="2.30"/><path d="M261.3,142.7 L362.0,61.0" stroke="#16120d" stroke-width="0.61" stroke-linecap="round" fill="none"/><circle cx="362.0" cy="61.0" r="1.52"/><path d="M267.6,158.6 L347.1,152.7" stroke="#16120d" stroke-width="1.43" stroke-linecap="round" fill="none"/><circle cx="347.1" cy="152.7" r="2.04"/><path d="M247.2,188.0 L276.0,286.0" stroke="#16120d" stroke-width="0.84" stroke-linecap="round" fill="none"/><circle cx="276.0" cy="286.0" r="0.95"/><path d="M217.6,179.2 L127.0,257.1" stroke="#16120d" stroke-width="1.46" stroke-linecap="round" fill="none"/><circle cx="127.0" cy="257.1" r="1.04"/><path d="M261.5,143.0 L354.2,69.6" stroke="#16120d" stroke-width="1.79" stroke-linecap="round" fill="none"/><circle cx="354.2" cy="69.6" r="2.12"/><path d="M224.9,136.1 L182.6,63.2" stroke="#16120d" stroke-width="2.08" stroke-linecap="round" fill="none"/><circle cx="182.6" cy="63.2" r="0.98"/><path d="M212.3,170.1 L122.2,201.5" stroke="#16120d" stroke-width="1.72" stroke-linecap="round" fill="none"/><circle cx="122.2" cy="201.5" r="1.24"/><path d="M239.1,348.4 L111.3,356.7" stroke="#16120d" stroke-width="1.37" stroke-linecap="round" fill="none"/><circle cx="111.3" cy="356.7" r="2.41"/><path d="M240.1,337.5 L155.0,315.3" stroke="#16120d" stroke-width="0.86" stroke-linecap="round" fill="none"/><circle cx="155.0" cy="315.3" r="2.20"/><path d="M239.2,349.9 L173.0,357.2" stroke="#16120d" stroke-width="1.10" stroke-linecap="round" fill="none"/><circle cx="173.0" cy="357.2" r="2.76"/><path d="M307.4,347.7 L444.2,353.8" stroke="#16120d" stroke-width="1.46" stroke-linecap="round" fill="none"/><circle cx="444.2" cy="353.8" r="1.00"/><path d="M280.6,312.8 L300.8,222.6" stroke="#16120d" stroke-width="1.60" stroke-linecap="round" fill="none"/><circle cx="300.8" cy="222.6" r="3.02"/><path d="M247.0,324.2 L151.4,243.8" stroke="#16120d" stroke-width="1.10" stroke-linecap="round" fill="none"/><circle cx="151.4" cy="243.8" r="0.60"/><path d="M300.3,325.4 L401.4,247.9" stroke="#16120d" stroke-width="1.09" stroke-linecap="round" fill="none"/><circle cx="401.4" cy="247.9" r="2.94"/><path d="M303.4,330.1 L378.0,290.2" stroke="#16120d" stroke-width="1.60" stroke-linecap="round" fill="none"/><circle cx="378.0" cy="290.2" r="2.27"/><path d="M303.0,363.0 L362.5,396.5" stroke="#16120d" stroke-width="0.71" stroke-linecap="round" fill="none"/><circle cx="362.5" cy="396.5" r="2.62"/><path d="M265.0,313.0 L248.8,247.4" stroke="#16120d" stroke-width="1.83" stroke-linecap="round" fill="none"/><circle cx="248.8" cy="247.4" r="1.96"/><path d="M269.4,380.2 L252.2,532.3" stroke="#16120d" stroke-width="0.56" stroke-linecap="round" fill="none"/><circle cx="252.2" cy="532.3" r="1.33"/><path d="M302.7,363.4 L403.7,422.1" stroke="#16120d" stroke-width="0.84" stroke-linecap="round" fill="none"/><circle cx="403.7" cy="422.1" r="1.23"/><circle cx="88.4" cy="326.5" r="1.97"/><circle cx="266.0" cy="335.0" r="0.80"/><circle cx="404.5" cy="276.5" r="2.47"/><circle cx="352.6" cy="132.8" r="3.89"/><circle cx="109.3" cy="267.6" r="0.90"/><circle cx="152.4" cy="35.0" r="0.84"/><circle cx="42.6" cy="283.3" r="0.62"/><circle cx="95.9" cy="423.0" r="0.46"/><circle cx="182.9" cy="60.1" r="2.72"/><circle cx="203.3" cy="191.4" r="2.86"/><circle cx="408.4" cy="537.2" r="1.50"/><circle cx="175.6" cy="11.1" r="0.84"/><circle cx="51.0" cy="413.2" r="1.06"/><circle cx="43.1" cy="340.6" r="0.43"/><circle cx="360.3" cy="22.8" r="0.83"/><circle cx="206.0" cy="243.7" r="1.55"/><circle cx="143.8" cy="186.2" r="3.28"/><circle cx="74.9" cy="469.1" r="0.86"/><circle cx="323.7" cy="445.9" r="0.84"/><circle cx="194.6" cy="112.8" r="1.27"/><circle cx="297.2" cy="409.5" r="0.63"/><circle cx="179.2" cy="162.8" r="3.46"/><circle cx="118.6" cy="488.7" r="3.31"/><circle cx="29.7" cy="443.3" r="1.80"/><circle cx="416.2" cy="244.0" r="0.63"/><circle cx="307.8" cy="354.0" r="2.98"/><circle cx="312.2" cy="430.5" r="1.29"/><circle cx="407.3" cy="507.2" r="0.53"/><circle cx="185.9" cy="87.3" r="1.73"/><circle cx="337.7" cy="115.0" r="2.40"/><circle cx="76.0" cy="124.9" r="1.84"/><circle cx="25.4" cy="51.6" r="1.55"/><circle cx="283.8" cy="386.9" r="2.83"/><circle cx="18.2" cy="425.9" r="1.89"/><circle cx="276.4" cy="367.3" r="0.88"/><circle cx="68.5" cy="29.5" r="2.03"/><circle cx="24.5" cy="87.2" r="0.66"/><circle cx="178.6" cy="196.4" r="0.60"/><circle cx="134.1" cy="387.5" r="0.47"/><circle cx="241.0" cy="79.7" r="1.44"/><circle cx="111.6" cy="538.4" r="0.69"/><circle cx="408.5" cy="96.7" r="0.81"/><circle cx="259.2" cy="423.8" r="1.74"/><circle cx="348.4" cy="238.3" r="2.50"/><circle cx="160.5" cy="202.0" r="0.59"/><circle cx="368.4" cy="369.5" r="1.12"/><circle cx="414.9" cy="222.8" r="0.79"/><circle cx="19.9" cy="401.5" r="0.86"/><circle cx="149.6" cy="373.1" r="1.58"/><circle cx="232.1" cy="164.7" r="2.11"/><circle cx="72.9" cy="141.6" r="1.70"/><circle cx="256.3" cy="343.0" r="0.62"/><circle cx="207.4" cy="198.7" r="0.72"/><circle cx="279.3" cy="88.6" r="2.49"/><circle cx="30.4" cy="217.7" r="0.43"/><circle cx="405.1" cy="28.2" r="3.61"/><circle cx="242.6" cy="141.9" r="3.56"/><circle cx="160.4" cy="531.9" r="1.59"/><circle cx="239.7" cy="397.1" r="0.48"/><circle cx="226.6" cy="56.2" r="0.90"/><circle cx="386.0" cy="133.3" r="1.54"/><path d="M268.3,374.7 L268.3,417.0" stroke="#16120d" stroke-width="1.88" stroke-linecap="round" fill="none"/><circle cx="268.3" cy="417.0" r="3.38"/><path d="M255.0,184.4 L255.0,257.4" stroke="#16120d" stroke-width="2.46" stroke-linecap="round" fill="none"/><circle cx="255.0" cy="257.4" r="4.17"/><path d="M252.6,374.7 L252.6,420.2" stroke="#16120d" stroke-width="1.91" stroke-linecap="round" fill="none"/><circle cx="252.6" cy="420.2" r="2.36"/>
  </g>
</svg>