<svg xmlns="http://www.w3.org/2000/svg" viewBox="0 0 1000 560" width="1000" height="560">
  <defs>
    <filter id="r7103" x="-15%" y="-15%" width="130%" height="130%">
      <feTurbulence type="fractalNoise" baseFrequency="0.0195" numOctaves="3" seed="7103" result="n"/>
      <feDisplacementMap in="SourceGraphic" in2="n" scale="14.1" xChannelSelector="R" yChannelSelector="G"/>
    </filter>
  </defs>
  <g fill="#16120d" filter="url(#r7103)">
<path d="M14.0,148.1 C182.4,186.4 302.6,98.7 528.6,168.1" stroke="#16120d" stroke-width="23.5" stroke-linecap="round" fill="none"/><path d="M14.0,149.5 C182.4,187.9 302.6,100.1 528.6,169.6" stroke="#16120d" stroke-width="1.36" stroke-linecap="round" fill="none" opacity="0.86"/><path d="M14.0,133.5 C182.4,171.8 302.6,84.0 528.6,153.5" stroke="#16120d" stroke-width="1.94" stroke-linecap="round" fill="none" opacity="0.64"/><path d="M14.0,142.9 C182.4,181.2 302.6,93.5 528.6,162.9" stroke="#16120d" stroke-width="1.30" stroke-linecap="round" fill="none" opacity="0.70"/><path d="M14.0,154.7 C182.4,193.0 302.6,105.3 528.6,174.7" stroke="#16120d" stroke-width="1.18" stroke-linecap="round" fill="none" opacity="0.64"/><path d="M528.6,168.1 L547.2,184.1" stroke="#16120d" stroke-width="0.52" stroke-linecap="round" fill="none"/><circle cx="547.2" cy="184.1" r="2.70"/><path d="M528.6,168.1 L590.5,137.7" stroke="#16120d" stroke-width="2.02" stroke-linecap="round" fill="none"/><circle cx="590.5" cy="137.7" r="1.27"/><path d="M528.6,168.1 L568.2,147.9" stroke="#16120d" stroke-width="0.66" stroke-linecap="round" fill="none"/><circle cx="568.2" cy="147.9" r="2.42"/><path d="M528.6,168.1 L559.3,149.0" stroke="#16120d" stroke-width="0.73" stroke-linecap="round" fill="none"/><circle cx="559.3" cy="149.0" r="2.87"/><path d="M528.6,168.1 L571.5,204.7" stroke="#16120d" stroke-width="0.71" stroke-linecap="round" fill="none"/><circle cx="571.5" cy="204.7" r="2.34"/><path d="M528.6,168.1 L598.5,218.1" stroke="#16120d" stroke-width="1.97" stroke-linecap="round" fill="none"/><circle cx="598.5" cy="218.1" r="1.98"/><path d="M528.6,168.1 L620.7,163.8" stroke="#16120d" stroke-width="1.95" stroke-linecap="round" fill="none"/><circle cx="620.7" cy="163.8" r="2.74"/><path d="M528.6,168.1 L569.5,183.7" stroke="#16120d" stroke-width="0.71" stroke-linecap="round" fill="none"/><circle cx="569.5" cy="183.7" r="2.35"/><path d="M528.6,168.1 L543.4,165.5" stroke="#16120d" stroke-width="1.45" stroke-linecap="round" fill="none"/><circle cx="543.4" cy="165.5" r="2.17"/><path d="M528.6,168.1 L554.8,154.3" stroke="#16120d" stroke-width="0.79" stroke-linecap="round" fill="none"/><circle cx="554.8" cy="154.3" r="1.03"/><path d="M128.9,478.2 C286.8,401.8 494.7,489.5 618.9,445.4" stroke="#16120d" stroke-width="14.1" stroke-linecap="round" fill="none"/><path d="M128.9,482.8 C286.8,406.4 494.7,494.1 618.9,449.9" stroke="#16120d" stroke-width="0.95" stroke-linecap="round" fill="none" opacity="0.75"/><path d="M128.9,476.7 C286.8,400.3 494.7,488.0 618.9,443.8" stroke="#16120d" stroke-width="0.54" stroke-linecap="round" fill="none" opacity="0.79"/><path d="M128.9,483.8 C286.8,407.4 494.7,495.1 618.9,450.9" stroke="#16120d" stroke-width="1.30" stroke-linecap="round" fill="none" opacity="0.87"/><path d="M618.9,445.4 L681.4,454.7" stroke="#16120d" stroke-width="0.81" stroke-linecap="round" fill="none"/><circle cx="681.4" cy="454.7" r="2.95"/><path d="M618.9,445.4 L634.1,460.5" stroke="#16120d" stroke-width="0.58" stroke-linecap="round" fill="none"/><circle cx="634.1" cy="460.5" r="0.73"/><path d="M618.9,445.4 L677.9,464.4" stroke="#16120d" stroke-width="2.00" stroke-linecap="round" fill="none"/><circle cx="677.9" cy="464.4" r="1.63"/><path d="M618.9,445.4 L666.8,493.2" stroke="#16120d" stroke-width="1.86" stroke-linecap="round" fill="none"/><circle cx="666.8" cy="493.2" r="1.56"/><path d="M8.8,128.0 C274.7,196.2 497.9,92.6 835.2,104.9" stroke="#16120d" stroke-width="16.4" stroke-linecap="round" fill="none"/><path d="M8.8,118.2 C274.7,186.4 497.9,82.8 835.2,95.1" stroke="#16120d" stroke-width="1.59" stroke-linecap="round" fill="none" opacity="0.65"/><path d="M8.8,117.8 C274.7,186.0 497.9,82.4 835.2,94.7" stroke="#16120d" stroke-width="1.22" stroke-linecap="round" fill="none" opacity="0.52"/><path d="M8.8,133.2 C274.7,201.3 497.9,97.7 835.2,110.0" stroke="#16120d" stroke-width="0.43" stroke-linecap="round" fill="none" opacity="0.87"/><path d="M8.8,132.2 C274.7,200.3 497.9,96.7 835.2,109.1" stroke="#16120d" stroke-width="0.95" stroke-linecap="round" fill="none" opacity="0.97"/><path d="M8.8,125.1 C274.7,193.3 497.9,89.7 835.2,102.0" stroke="#16120d" stroke-width="2.17" stroke-linecap="round" fill="none" opacity="0.85"/><path d="M835.2,104.9 L876.8,111.6" stroke="#16120d" stroke-width="1.79" stroke-linecap="round" fill="none"/><circle cx="876.8" cy="111.6" r="2.30"/><path d="M835.2,104.9 L900.2,70.7" stroke="#16120d" stroke-width="1.38" stroke-linecap="round" fill="none"/><circle cx="900.2" cy="70.7" r="1.02"/><path d="M835.2,104.9 L854.4,100.9" stroke="#16120d" stroke-width="1.00" stroke-linecap="round" fill="none"/><circle cx="854.4" cy="100.9" r="2.08"/><path d="M835.2,104.9 L863.3,132.4" stroke="#16120d" stroke-width="0.80" stroke-linecap="round" fill="none"/><circle cx="863.3" cy="132.4" r="3.19"/><path d="M835.2,104.9 L915.1,57.8" stroke="#16120d" stroke-width="1.26" stroke-linecap="round" fill="none"/><circle cx="915.1" cy="57.8" r="1.41"/><path d="M835.2,104.9 L856.4,100.9" stroke="#16120d" stroke-width="0.93" stroke-linecap="round" fill="none"/><circle cx="856.4" cy="100.9" r="2.61"/><path d="M835.2,104.9 L912.2,135.7" stroke="#16120d" stroke-width="1.95" stroke-linecap="round" fill="none"/><circle cx="912.2" cy="135.7" r="2.22"/><path d="M187.6,311.6 C374.2,356.2 637.3,346.8 874.3,304.3" stroke="#16120d" stroke-width="20.4" stroke-linecap="round" fill="none"/><path d="M187.6,310.0 C374.2,354.6 637.3,345.2 874.3,302.7" stroke="#16120d" stroke-width="0.44" stroke-linecap="round" fill="none" opacity="0.56"/><path d="M187.6,314.6 C374.2,359.2 637.3,349.8 874.3,307.2" stroke="#16120d" stroke-width="2.18" stroke-linecap="round" fill="none" opacity="0.59"/><path d="M187.6,308.9 C374.2,353.6 637.3,344.1 874.3,301.6" stroke="#16120d" stroke-width="1.64" stroke-linecap="round" fill="none" opacity="0.81"/><path d="M187.6,317.0 C374.2,361.7 637.3,352.2 874.3,309.7" stroke="#16120d" stroke-width="1.22" stroke-linecap="round" fill="none" opacity="0.65"/><path d="M874.3,304.3 L919.4,265.9" stroke="#16120d" stroke-width="1.83" stroke-linecap="round" fill="none"/><circle cx="919.4" cy="265.9" r="2.80"/><path d="M874.3,304.3 L896.3,326.2" stroke="#16120d" stroke-width="1.43" stroke-linecap="round" fill="none"/><circle cx="896.3" cy="326.2" r="2.89"/><path d="M874.3,304.3 L944.1,279.6" stroke="#16120d" stroke-width="2.02" stroke-linecap="round" fill="none"/><circle cx="944.1" cy="279.6" r="2.91"/><path d="M874.3,304.3 L909.0,331.1" stroke="#16120d" stroke-width="2.14" stroke-linecap="round" fill="none"/><circle cx="909.0" cy="331.1" r="1.86"/><path d="M874.3,304.3 L889.8,294.3" stroke="#16120d" stroke-width="1.92" stroke-linecap="round" fill="none"/><circle cx="889.8" cy="294.3" r="2.06"/><path d="M874.3,304.3 L926.7,337.0" stroke="#16120d" stroke-width="1.30" stroke-linecap="round" fill="none"/><circle cx="926.7" cy="337.0" r="2.68"/><path d="M874.3,304.3 L898.6,323.9" stroke="#16120d" stroke-width="1.47" stroke-linecap="round" fill="none"/><circle cx="898.6" cy="323.9" r="1.52"/><path d="M874.3,304.3 L947.5,348.4" stroke="#16120d" stroke-width="0.72" stroke-linecap="round" fill="none"/><circle cx="947.5" cy="348.4" r="1.30"/><path d="M874.3,304.3 L935.5,356.1" stroke="#16120d" stroke-width="2.10" stroke-linecap="round" fill="none"/><circle cx="935.5" cy="356.1" r="2.97"/><path d="M874.3,304.3 L905.5,306.8" stroke="#16120d" stroke-width="0.70" stroke-linecap="round" fill="none"/><circle cx="905.5" cy="306.8" r="1.84"/><path d="M54.1,126.9 C210.7,177.0 314.4,210.9 517.2,172.1" stroke="#16120d" stroke-width="23.8" stroke-linecap="round" fill="none"/><path d="M54.1,135.3 C210.7,185.3 314.4,219.2 517.2,180.5" stroke="#16120d" stroke-width="1.68" stroke-linecap="round" fill="none" opacity="0.73"/><path d="M54.1,126.5 C210.7,176.5 314.4,210.5 517.2,171.7" stroke="#16120d" stroke-width="0.92" stroke-linecap="round" fill="none" opacity="0.69"/><path d="M54.1,138.9 C210.7,188.9 314.4,222.9 517.2,184.1" stroke="#16120d" stroke-width="1.75" stroke-linecap="round" fill="none" opacity="0.97"/><path d="M54.1,121.5 C210.7,171.5 314.4,205.4 517.2,166.6" stroke="#16120d" stroke-width="0.68" stroke-linecap="round" fill="none" opacity="0.79"/><path d="M54.1,129.1 C210.7,179.1 314.4,213.0 517.2,174.3" stroke="#16120d" stroke-width="1.09" stroke-linecap="round" fill="none" opacity="0.84"/><path d="M517.2,172.1 L539.0,155.2" stroke="#16120d" stroke-width="0.50" stroke-linecap="round" fill="none"/><circle cx="539.0" cy="155.2" r="2.38"/><path d="M517.2,172.1 L530.2,180.8" stroke="#16120d" stroke-width="1.94" stroke-linecap="round" fill="none"/><circle cx="530.2" cy="180.8" r="0.91"/><path d="M517.2,172.1 L600.6,191.4" stroke="#16120d" stroke-width="1.62" stroke-linecap="round" fill="none"/><circle cx="600.6" cy="191.4" r="0.82"/><path d="M517.2,172.1 L528.2,177.6" stroke="#16120d" stroke-width="1.72" stroke-linecap="round" fill="none"/><circle cx="528.2" cy="177.6" r="1.86"/><path d="M517.2,172.1 L597.3,150.8" stroke="#16120d" stroke-width="1.03" stroke-linecap="round" fill="none"/><circle cx="597.3" cy="150.8" r="1.11"/><path d="M517.2,172.1 L580.8,197.4" stroke="#16120d" stroke-width="1.40" stroke-linecap="round" fill="none"/><circle cx="580.8" cy="197.4" r="1.75"/><path d="M517.2,172.1 L597.4,223.3" stroke="#16120d" stroke-width="0.78" stroke-linecap="round" fill="none"/><circle cx="597.4" cy="223.3" r="1.93"/><path d="M230.1,323.9 C385.0,345.8 449.5,344.3 619.5,305.7" stroke="#16120d" stroke-width="16.2" stroke-linecap="round" fill="none"/><path d="M230.1,331.4 C385.0,353.3 449.5,351.8 619.5,313.3" stroke="#16120d" stroke-width="2.03" stroke-linecap="round" fill="none" opacity="0.85"/><path d="M230.1,321.9 C385.0,343.7 449.5,342.3 619.5,303.7" stroke="#16120d" stroke-width="0.42" stroke-linecap="round" fill="none" opacity="0.82"/><path d="M230.1,317.9 C385.0,339.8 449.5,338.3 619.5,299.7" stroke="#16120d" stroke-width="1.63" stroke-linecap="round" fill="none" opacity="0.89"/><path d="M230.1,319.6 C385.0,341.5 449.5,340.0 619.5,301.5" stroke="#16120d" stroke-width="1.44" stroke-linecap="round" fill="none" opacity="0.86"/><path d="M230.1,314.3 C385.0,336.2 449.5,334.7 619.5,296.2" stroke="#16120d" stroke-width="0.55" stroke-linecap="round" fill="none" opacity="0.77"/><path d="M619.5,305.7 L631.8,308.0" stroke="#16120d" stroke-width="0.64" stroke-linecap="round" fill="none"/><circle cx="631.8" cy="308.0" r="2.77"/><path d="M619.5,305.7 L662.6,336.4" stroke="#16120d" stroke-width="0.58" stroke-linecap="round" fill="none"/><circle cx="662.6" cy="336.4" r="1.81"/><path d="M619.5,305.7 L706.4,296.4" stroke="#16120d" stroke-width="1.78" stroke-linecap="round" fill="none"/><circle cx="706.4" cy="296.4" r="2.22"/><path d="M619.5,305.7 L669.9,351.4" stroke="#16120d" stroke-width="0.67" stroke-linecap="round" fill="none"/><circle cx="669.9" cy="351.4" r="1.47"/><path d="M619.5,305.7 L652.5,334.7" stroke="#16120d" stroke-width="0.82" stroke-linecap="round" fill="none"/><circle cx="652.5" cy="334.7" r="0.68"/><path d="M619.5,305.7 L687.4,268.3" stroke="#16120d" stroke-width="1.76" stroke-linecap="round" fill="none"/><circle cx="687.4" cy="268.3" r="0.75"/><path d="M619.5,305.7 L701.0,256.5" stroke="#16120d" stroke-width="1.28" stroke-linecap="round" fill="none"/><circle cx="701.0" cy="256.5" r="2.56"/><path d="M619.5,305.7 L660.4,303.1" stroke="#16120d" stroke-width="1.16" stroke-linecap="round" fill="none"/><circle cx="660.4" cy="303.1" r="2.88"/><path d="M256.1,369.7 C406.7,391.5 611.3,310.3 801.0,316.8" stroke="#16120d" stroke-width="7.1" stroke-linecap="round" fill="none"/><path d="M256.1,370.8 C406.7,392.7 611.3,311.4 801.0,317.9" stroke="#16120d" stroke-width="1.06" stroke-linecap="round" fill="none" opacity="0.68"/><path d="M256.1,368.3 C406.7,390.2 611.3,308.9 801.0,315.4" stroke="#16120d" stroke-width="1.20" stroke-linecap="round" fill="none" opacity="0.85"/><path d="M256.1,370.2 C406.7,392.1 611.3,310.8 801.0,317.3" stroke="#16120d" stroke-width="0.58" stroke-linecap="round" fill="none" opacity="0.68"/><path d="M801.0,316.8 L825.8,333.2" stroke="#16120d" stroke-width="0.73" stroke-linecap="round" fill="none"/><circle cx="825.8" cy="333.2" r="1.41"/><path d="M801.0,316.8 L853.2,344.5" stroke="#16120d" stroke-width="1.11" stroke-linecap="round" fill="none"/><circle cx="853.2" cy="344.5" r="1.58"/><path d="M801.0,316.8 L853.6,280.3" stroke="#16120d" stroke-width="1.29" stroke-linecap="round" fill="none"/><circle cx="853.6" cy="280.3" r="1.11"/><path d="M801.0,316.8 L881.0,322.0" stroke="#16120d" stroke-width="0.82" stroke-linecap="round" fill="none"/><circle cx="881.0" cy="322.0" r="1.87"/><path d="M801.0,316.8 L815.0,319.3" stroke="#16120d" stroke-width="0.54" stroke-linecap="round" fill="none"/><circle cx="815.0" cy="319.3" r="1.60"/><path d="M801.0,316.8 L814.4,308.7" stroke="#16120d" stroke-width="1.05" stroke-linecap="round" fill="none"/><circle cx="814.4" cy="308.7" r="2.39"/><path d="M56.0,469.6 C278.8,538.8 472.6,486.8 743.7,522.0" stroke="#16120d" stroke-width="24.5" stroke-linecap="round" fill="none"/><path d="M56.0,468.9 C278.8,538.2 472.6,486.2 743.7,521.3" stroke="#16120d" stroke-width="1.40" stroke-linecap="round" fill="none" opacity="0.80"/><path d="M56.0,458.0 C278.8,527.2 472.6,475.2 743.7,510.4" stroke="#16120d" stroke-width="1.43" stroke-linecap="round" fill="none" opacity="0.61"/><path d="M56.0,456.8 C278.8,526.1 472.6,474.0 743.7,509.2" stroke="#16120d" stroke-width="1.84" stroke-linecap="round" fill="none" opacity="0.98"/><path d="M743.7,522.0 L807.1,559.6" stroke="#16120d" stroke-width="0.68" stroke-linecap="round" fill="none"/><circle cx="807.1" cy="559.6" r="1.41"/><path d="M743.7,522.0 L809.0,521.5" stroke="#16120d" stroke-width="1.59" stroke-linecap="round" fill="none"/><circle cx="809.0" cy="521.5" r="1.60"/><path d="M743.7,522.0 L777.9,514.2" stroke="#16120d" stroke-width="0.84" stroke-linecap="round" fill="none"/><circle cx="777.9" cy="514.2" r="2.95"/><path d="M743.7,522.0 L789.4,550.1" stroke="#16120d" stroke-width="1.97" stroke-linecap="round" fill="none"/><circle cx="789.4" cy="550.1" r="2.43"/><path d="M743.7,522.0 L804.4,476.1" stroke="#16120d" stroke-width="1.39" stroke-linecap="round" fill="none"/><circle cx="804.4" cy="476.1" r="2.76"/><path d="M743.7,522.0 L782.6,497.8" stroke="#16120d" stroke-width="1.86" stroke-linecap="round" fill="none"/><circle cx="782.6" cy="497.8" r="2.82"/><path d="M743.7,522.0 L799.7,545.7" stroke="#16120d" stroke-width="1.16" stroke-linecap="round" fill="none"/><circle cx="799.7" cy="545.7" r="2.46"/><path d="M743.7,522.0 L829.8,495.9" stroke="#16120d" stroke-width="1.19" stroke-linecap="round" fill="none"/><circle cx="829.8" cy="495.9" r="0.76"/><path d="M84.1,475.4 C390.1,522.3 592.9,497.1 827.2,513.4" stroke="#16120d" stroke-width="10.0" stroke-linecap="round" fill="none"/><path d="M84.1,473.6 C390.1,520.5 592.9,495.3 827.2,511.6" stroke="#16120d" stroke-width="0.70" stroke-linecap="round" fill="none" opacity="0.65"/><path d="M84.1,475.9 C390.1,522.8 592.9,497.6 827.2,513.9" stroke="#16120d" stroke-width="1.22" stroke-linecap="round" fill="none" opacity="0.53"/><path d="M827.2,513.4 L892.2,478.3" stroke="#16120d" stroke-width="0.81" stroke-linecap="round" fill="none"/><circle cx="892.2" cy="478.3" r="2.06"/><path d="M827.2,513.4 L915.6,499.4" stroke="#16120d" stroke-width="0.90" stroke-linecap="round" fill="none"/><circle cx="915.6" cy="499.4" r="1.77"/><path d="M827.2,513.4 L898.1,475.0" stroke="#16120d" stroke-width="0.91" stroke-linecap="round" fill="none"/><circle cx="898.1" cy="475.0" r="3.04"/><path d="M827.2,513.4 L861.7,543.0" stroke="#16120d" stroke-width="1.65" stroke-linecap="round" fill="none"/><circle cx="861.7" cy="543.0" r="0.87"/><path d="M827.2,513.4 L886.0,509.6" stroke="#16120d" stroke-width="1.32" stroke-linecap="round" fill="none"/><circle cx="886.0" cy="509.6" r="1.94"/><circle cx="300.3" cy="83.5" r="0.79"/><circle cx="442.7" cy="358.6" r="1.60"/><circle cx="503.7" cy="324.9" r="1.65"/><circle cx="735.1" cy="81.2" r="1.51"/><circle cx="752.5" cy="201.6" r="0.80"/><circle cx="314.1" cy="222.1" r="0.94"/><circle cx="892.4" cy="251.0" r="1.75"/><circle cx="789.0" cy="285.8" r="1.11"/><circle cx="740.2" cy="393.1" r="0.92"/><circle cx="278.4" cy="502.1" r="0.55"/><circle cx="642.5" cy="518.6" r="1.67"/><circle cx="370.1" cy="444.2" r="1.25"/><circle cx="81.4" cy="252.7" r="0.68"/><circle cx="229.7" cy="282.6" r="0.72"/><circle cx="422.5" cy="106.9" r="4.08"/><circle cx="596.9" cy="335.1" r="3.45"/><circle cx="380.9" cy="139.2" r="1.85"/><circle cx="704.7" cy="406.0" r="4.43"/><circle cx="767.7" cy="98.2" r="1.02"/><circle cx="260.1" cy="361.4" r="0.92"/><circle cx="959.0" cy="432.2" r="0.64"/><circle cx="892.0" cy="42.2" r="2.82"/><circle cx="186.5" cy="43.8" r="2.33"/><circle cx="100.7" cy="334.1" r="1.93"/><circle cx="341.5" cy="464.0" r="1.97"/><circle cx="813.7" cy="325.7" r="0.51"/><circle cx="90.1" cy="45.2" r="1.92"/><circle cx="115.1" cy="84.4" r="3.39"/><circle cx="573.6" cy="19.7" r="2.67"/><circle cx="612.6" cy="418.4" r="1.19"/><circle cx="941.5" cy="474.2" r="0.88"/><circle cx="840.4" cy="188.2" r="2.28"/><circle cx="257.3" cy="52.5" r="3.71"/><circle cx="148.3" cy="543.1" r="1.19"/><circle cx="106.5" cy="219.5" r="1.18"/><circle cx="568.8" cy="444.7" r="1.18"/><circle cx="593.5" cy="168.2" r="2.63"/><circle cx="526.0" cy="174.6" r="1.97"/><circle cx="175.5" cy="182.8" r="0.71"/><circle cx="914.3" cy="349.9" r="0.83"/><circle cx="666.2" cy="256.8" r="1.82"/><circle cx="864.2" cy="72.9" r="2.58"/><circle cx="285.4" cy="282.0" r="1.20"/><circle cx="845.9" cy="463.6" r="2.95"/><circle cx="632.3" cy="127.9" r="2.02"/><circle cx="701.5" cy="347.1" r="0.41"/><circle cx="64.7" cy="126.3" r="0.99"/><circle cx="6.8" cy="551.0" r="0.43"/><circle cx="941.0" cy="490.3" r="1.77"/><circle cx="531.0" cy="22.8" r="2.58"/><circle cx="789.8" cy="543.2" r="3.27"/><circle cx="161.0" cy="194.0" r="1.47"/><circle cx="108.7" cy="185.9" r="1.45"/><circle cx="416.8" cy="375.7" r="0.63"/><circle cx="604.1" cy="283.0" r="0.83"/><circle cx="805.1" cy="254.6" r="0.85"/><circle cx="526.4" cy="55.7" r="1.29"/><circle cx="514.9" cy="347.9" r="0.43"/><circle cx="433.8" cy="445.4" r="0.83"/><circle cx="352.3" cy="316.0" r="1.46"/><circle cx="569.9" cy="322.1" r="0.87"/><circle cx="584.4" cy="473.0" r="1.96"/><circle cx="730.2" cy="91.6" r="1.53"/><circle cx="545.0" cy="389.0" r="1.58"/><circle cx="395.5" cy="332.5" r="3.17"/><circle cx="276.7" cy="281.0" r="0.76"/><circle cx="418.0" cy="201.9" r="0.93"/><circle cx="272.7" cy="544.8" r="0.83"/><circle cx="837.3" cy="379.8" r="2.53"/><circle cx="84.4" cy="444.6" r="1.69"/><circle cx="22.4" cy="139.3" r="0.45"/><circle cx="171.1" cy="471.4" r="0.46"/><circle cx="149.2" cy="112.9" r="0.76"/><circle cx="310.2" cy="171.1" r="3.38"/><circle cx="112.2" cy="89.4" r="2.14"/><circle cx="121.8" cy="152.8" r="1.21"/><circle cx="538.1" cy="334.6" r="0.68"/><circle cx="329.5" cy="109.0" r="1.87"/><circle cx="943.5" cy="266.6" r="0.43"/><circle cx="238.9" cy="245.0" r="1.04"/><circle cx="846.4" cy="362.8" r="1.07"/><circle cx="510.9" cy="350.0" r="1.73"/><circle cx="689.6" cy="174.1" r="0.79"/><circle cx="636.6" cy="60.0" r="3.30"/><circle cx="580.9" cy="465.9" r="0.48"/><circle cx="286.5" cy="481.7" r="1.88"/><circle cx="780.2" cy="116.3" r="1.58"/><circle cx="734.7" cy="482.7" r="1.54"/><circle cx="208.7" cy="317.4" r="4.35"/><circle cx="615.8" cy="559.1" r="0.72"/><circle cx="788.1" cy="122.9" r="0.74"/><circle cx="569.0" cy="243.4" r="1.88"/><circle cx="304.8" cy="393.6" r="1.36"/><circle cx="395.7" cy="487.6" r="2.00"/><circle cx="623.7" cy="93.5" r="1.87"/><circle cx="40.2" cy="480.8" r="0.42"/><circle cx="577.4" cy="429.3" r="1.42"/><circle cx="558.3" cy="74.5" r="1.94"/><circle cx="789.8" cy="309.7" r="2.30"/><circle cx="653.8" cy="481.7" r="1.68"/><circle cx="905.0" cy="329.7" r="1.75"/><circle cx="723.0" cy="110.0" r="0.85"/><circle cx="470.2" cy="309.7" r="1.34"/><circle cx="739.1" cy="273.2" r="1.33"/><circle cx="969.2" cy="415.2" r="0.56"/><circle cx="166.6" cy="178.7" r="0.45"/><circle cx="56.9" cy="83.3" r="0.41"/><circle cx="713.6" cy="6.7" r="0.80"/><circle cx="587.8" cy="237.3" r="1.73"/><circle cx="348.5" cy="472.3" r="0.91"/><circle cx="901.0" cy="193.8" r="0.78"/><circle cx="12.4" cy="290.8" r="1.81"/><circle cx="61.8" cy="77.6" r="0.74"/><circle cx="523.0" cy="505.0" r="0.46"/><circle cx="852.1" cy="400.4" r="1.84"/><circle cx="352.9" cy="296.1" r="2.37"/><circle cx="906.0" cy="8.3" r="1.20"/><circle cx="467.0" cy="184.8" r="0.78"/><circle cx="360.9" cy="212.2" r="1.23"/><circle cx="219.1" cy="558.5" r="0.46"/><circle cx="71.6" cy="463.0" r="3.47"/><circle cx="855.5" cy="493.5" r="0.59"/><circle cx="152.2" cy="36.7" r="3.15"/><circle cx="494.2" cy="539.5" r="0.58"/><circle cx="865.5" cy="462.8" r="1.55"/><circle cx="834.2" cy="0.1" r="0.60"/><circle cx="535.3" cy="312.2" r="2.91"/><circle cx="640.4" cy="81.7" r="0.73"/><circle cx="28.3" cy="378.6" r="0.84"/><circle cx="670.5" cy="47.0" r="1.01"/><circle cx="967.1" cy="322.7" r="0.61"/><circle cx="796.1" cy="378.0" r="0.61"/><circle cx="131.8" cy="95.0" r="0.49"/><circle cx="564.5" cy="439.7" r="2.25"/><circle cx="340.3" cy="320.1" r="0.61"/><circle cx="40.8" cy="258.7" r="2.35"/><circle cx="566.5" cy="405.0" r="0.51"/>
  </g>
</svg>