<svg xmlns="http://www.w3.org/2000/svg" viewBox="0 0 420 540" width="420" height="540">
  <defs>
    <filter id="r4059" x="-15%" y="-15%" width="130%" height="130%">
      <feTurbulence type="fractalNoise" baseFrequency="0.0240" numOctaves="3" seed="4059" result="n"/>
      <feDisplacementMap in="SourceGraphic" in2="n" scale="14.5" xChannelSelector="R" yChannelSelector="G"/>
    </filter>
  </defs>
  <g fill="#16120d" filter="url(#r4059)">
<path d="M242.4,95.7C239.8,108.4 247.9,114.6 245.3,128.0C242.7,141.4 237.5,171.7 227.0,176.1C216.4,180.4 193.8,161.9 182.0,154.0C170.1,146.0 160.8,138.2 155.8,128.5C150.8,118.8 155.1,109.0 151.8,95.7C148.6,82.4 131.1,58.1 136.2,48.8C141.4,39.4 168.9,41.4 182.7,39.8C196.5,38.2 206.2,37.1 219.3,39.2C232.3,41.2 257.1,42.7 260.9,52.1C264.8,61.5 245.0,83.1 242.4,95.7Z"/><path d="M248.7,39.8C247.8,42.2 240.3,42.4 237.8,44.2C235.2,45.9 235.6,49.6 233.4,50.3C231.2,51.0 227.4,50.3 224.7,48.6C222.1,46.8 217.8,43.0 217.5,39.8C217.2,36.7 220.4,31.2 223.1,29.5C225.7,27.8 230.1,29.5 233.4,29.6C236.8,29.7 240.6,28.4 243.2,30.1C245.7,31.8 249.6,37.5 248.7,39.8Z"/><path d="M254.3,27.4C254.6,29.4 250.7,33.0 248.5,34.6C246.4,36.2 243.4,37.4 241.3,37.1C239.3,36.7 240.0,34.2 236.2,32.5C232.4,30.9 219.1,29.5 218.7,27.4C218.3,25.3 230.3,21.8 234.0,20.1C237.8,18.4 239.3,16.9 241.3,17.2C243.4,17.6 244.3,20.5 246.5,22.2C248.7,23.9 253.9,25.3 254.3,27.4Z"/><path d="M265.7,281.5C267.5,294.2 285.2,311.3 282.5,322.7C279.8,334.1 262.2,344.0 249.7,350.0C237.1,356.0 218.3,363.6 207.3,358.8C196.3,354.0 189.4,332.1 183.9,321.4C178.3,310.7 181.0,304.9 174.1,294.6C167.2,284.2 139.7,266.8 142.4,259.2C145.1,251.7 179.4,257.9 190.3,249.1C201.1,240.2 200.7,205.4 207.5,206.0C214.4,206.7 220.8,245.9 231.6,252.7C242.3,259.6 266.4,242.3 272.1,247.1C277.8,251.9 264.0,268.9 265.7,281.5Z"/><path d="M270.7,262.3C271.6,266.6 277.7,275.0 276.0,277.7C274.3,280.5 266.2,278.1 260.5,278.6C254.9,279.1 244.0,283.5 242.0,280.7C240.0,278.0 248.2,268.2 248.5,262.3C248.8,256.3 241.6,248.4 243.6,245.3C245.6,242.2 256.0,242.7 260.5,243.8C265.1,244.9 269.2,248.8 270.9,251.9C272.6,254.9 269.9,257.9 270.7,262.3Z"/><path d="M245.9,224.6C246.1,228.0 239.0,233.0 235.5,235.3C232.0,237.5 229.0,237.7 224.9,238.2C220.8,238.8 213.5,240.7 211.0,238.5C208.5,236.2 208.6,228.0 209.9,224.6C211.1,221.2 215.9,221.0 218.4,218.2C220.9,215.3 222.2,207.9 224.9,207.4C227.5,206.9 230.8,212.2 234.3,215.1C237.9,218.0 245.7,221.2 245.9,224.6Z"/><path d="M325.4,414.9C325.5,423.2 318.3,422.9 318.3,439.8C318.4,456.6 333.5,511.0 325.8,515.9C318.0,520.7 287.4,476.7 271.9,468.9C256.4,461.0 243.5,474.3 232.9,468.9C222.3,463.4 210.1,447.8 208.0,435.9C206.0,424.1 213.4,406.3 220.8,397.6C228.3,389.0 244.8,393.6 252.8,383.9C260.8,374.2 259.5,344.7 268.8,339.4C278.1,334.0 300.3,343.2 308.5,351.7C316.7,360.2 315.3,379.6 318.1,390.2C321.0,400.7 325.4,406.6 325.4,414.9Z"/><path d="M358.4,360.5C356.0,369.9 333.4,374.9 324.2,381.4C315.0,388.0 313.3,396.9 303.3,400.0C293.2,403.1 268.1,406.4 263.9,399.8C259.8,393.2 276.8,372.0 278.4,360.5C280.0,348.9 269.3,335.8 273.5,330.7C277.6,325.5 292.4,330.6 303.3,329.7C314.1,328.7 329.6,319.8 338.8,324.9C348.0,330.0 360.9,351.0 358.4,360.5Z"/><path d="M338.5,491.8C340.3,499.0 342.3,513.5 337.7,518.6C333.1,523.7 319.4,522.8 310.8,522.5C302.2,522.1 292.1,521.7 286.0,516.6C279.9,511.5 272.8,498.5 274.3,491.8C275.9,485.0 289.2,481.9 295.3,476.2C301.4,470.5 305.5,457.5 310.8,457.4C316.2,457.2 322.6,469.6 327.2,475.4C331.8,481.1 336.8,484.6 338.5,491.8Z"/><path d="M260.3,373.6C260.2,378.6 253.0,382.7 248.7,388.0C244.4,393.3 240.3,404.4 234.3,405.5C228.4,406.7 217.2,400.3 213.0,395.0C208.7,389.7 209.2,381.1 208.8,373.6C208.5,366.2 206.7,352.5 210.9,350.2C215.2,347.9 227.9,358.5 234.3,359.8C240.8,361.1 245.4,355.9 249.8,358.2C254.1,360.5 260.5,368.7 260.3,373.6Z"/><path d="M170.4,79.3 L56.2,17.7" stroke="#16120d" stroke-width="1.16" stroke-linecap="round" fill="none"/><circle cx="56.2" cy="17.7" r="3.11"/><path d="M168.7,82.9 L17.8,23.0" stroke="#16120d" stroke-width="0.92" stroke-linecap="round" fill="none"/><circle cx="17.8" cy="23.0" r="0.92"/><path d="M188.3,63.5 L136.5,-68.5" stroke="#16120d" stroke-width="1.14" stroke-linecap="round" fill="none"/><circle cx="136.5" cy="-68.5" r="3.11"/><path d="M229.1,75.7 L369.5,-24.2" stroke="#16120d" stroke-width="0.98" stroke-linecap="round" fill="none"/><circle cx="369.5" cy="-24.2" r="2.14"/><path d="M214.5,63.9 L255.3,-31.6" stroke="#16120d" stroke-width="1.05" stroke-linecap="round" fill="none"/><circle cx="255.3" cy="-31.6" r="1.69"/><path d="M233.0,108.6 L353.1,156.6" stroke="#16120d" stroke-width="1.52" stroke-linecap="round" fill="none"/><circle cx="353.1" cy="156.6" r="0.70"/><path d="M196.1,258.6 L104.1,163.9" stroke="#16120d" stroke-width="1.45" stroke-linecap="round" fill="none"/><circle cx="104.1" cy="163.9" r="1.97"/><path d="M225.1,312.8 L239.7,380.7" stroke="#16120d" stroke-width="1.63" stroke-linecap="round" fill="none"/><circle cx="239.7" cy="380.7" r="0.69"/><path d="M195.1,303.4 L96.5,395.6" stroke="#16120d" stroke-width="1.22" stroke-linecap="round" fill="none"/><circle cx="96.5" cy="395.6" r="1.09"/><path d="M197.2,257.6 L132.6,184.4" stroke="#16120d" stroke-width="1.56" stroke-linecap="round" fill="none"/><circle cx="132.6" cy="184.4" r="1.35"/><path d="M234.9,254.2 L266.7,201.7" stroke="#16120d" stroke-width="2.13" stroke-linecap="round" fill="none"/><circle cx="266.7" cy="201.7" r="1.60"/><path d="M221.2,313.4 L230.4,416.0" stroke="#16120d" stroke-width="0.92" stroke-linecap="round" fill="none"/><circle cx="230.4" cy="416.0" r="1.44"/><path d="M207.4,251.5 L163.1,130.5" stroke="#16120d" stroke-width="0.64" stroke-linecap="round" fill="none"/><circle cx="163.1" cy="130.5" r="2.61"/><path d="M189.4,268.1 L53.9,205.3" stroke="#16120d" stroke-width="2.15" stroke-linecap="round" fill="none"/><circle cx="53.9" cy="205.3" r="2.79"/><path d="M247.1,295.7 L370.2,356.3" stroke="#16120d" stroke-width="1.11" stroke-linecap="round" fill="none"/><circle cx="370.2" cy="356.3" r="2.43"/><path d="M233.3,309.8 L254.5,349.8" stroke="#16120d" stroke-width="1.75" stroke-linecap="round" fill="none"/><circle cx="254.5" cy="349.8" r="1.86"/><path d="M191.5,298.8 L113.1,349.2" stroke="#16120d" stroke-width="2.16" stroke-linecap="round" fill="none"/><circle cx="113.1" cy="349.2" r="2.54"/><path d="M191.3,298.5 L64.7,377.4" stroke="#16120d" stroke-width="1.89" stroke-linecap="round" fill="none"/><circle cx="64.7" cy="377.4" r="2.28"/><path d="M242.8,302.2 L339.6,384.1" stroke="#16120d" stroke-width="1.23" stroke-linecap="round" fill="none"/><circle cx="339.6" cy="384.1" r="2.89"/><path d="M310.1,379.0 L398.6,274.9" stroke="#16120d" stroke-width="0.53" stroke-linecap="round" fill="none"/><circle cx="398.6" cy="274.9" r="1.65"/><path d="M317.4,386.8 L492.1,256.5" stroke="#16120d" stroke-width="2.10" stroke-linecap="round" fill="none"/><circle cx="492.1" cy="256.5" r="0.86"/><path d="M302.8,455.9 L406.7,639.9" stroke="#16120d" stroke-width="1.60" stroke-linecap="round" fill="none"/><circle cx="406.7" cy="639.9" r="2.97"/><path d="M269.8,368.9 L229.7,181.1" stroke="#16120d" stroke-width="2.08" stroke-linecap="round" fill="none"/><circle cx="229.7" cy="181.1" r="1.42"/><path d="M262.8,458.9 L186.1,658.5" stroke="#16120d" stroke-width="1.24" stroke-linecap="round" fill="none"/><circle cx="186.1" cy="658.5" r="1.79"/><path d="M284.0,461.8 L291.9,547.2" stroke="#16120d" stroke-width="1.12" stroke-linecap="round" fill="none"/><circle cx="291.9" cy="547.2" r="1.52"/><path d="M322.9,433.4 L494.5,506.7" stroke="#16120d" stroke-width="1.63" stroke-linecap="round" fill="none"/><circle cx="494.5" cy="506.7" r="2.01"/><path d="M312.8,381.4 L404.4,288.8" stroke="#16120d" stroke-width="1.66" stroke-linecap="round" fill="none"/><circle cx="404.4" cy="288.8" r="2.59"/><path d="M322.6,434.1 L507.6,516.9" stroke="#16120d" stroke-width="1.18" stroke-linecap="round" fill="none"/><circle cx="507.6" cy="516.9" r="1.95"/><path d="M319.8,390.3 L408.4,335.9" stroke="#16120d" stroke-width="1.66" stroke-linecap="round" fill="none"/><circle cx="408.4" cy="335.9" r="0.93"/><circle cx="3.4" cy="49.3" r="3.71"/><circle cx="8.6" cy="114.4" r="0.43"/><circle cx="111.8" cy="324.3" r="0.40"/><circle cx="171.7" cy="32.6" r="1.32"/><circle cx="208.9" cy="287.5" r="1.43"/><circle cx="52.4" cy="244.7" r="0.45"/><circle cx="262.8" cy="188.0" r="1.35"/><circle cx="399.9" cy="174.0" r="1.24"/><circle cx="403.8" cy="342.7" r="0.60"/><circle cx="214.4" cy="277.6" r="1.99"/><circle cx="160.0" cy="122.6" r="1.58"/><circle cx="25.0" cy="57.6" r="1.36"/><circle cx="10.2" cy="457.4" r="1.33"/><circle cx="200.9" cy="473.0" r="1.55"/><circle cx="9.3" cy="309.8" r="3.64"/><circle cx="350.0" cy="284.7" r="0.72"/><circle cx="286.2" cy="494.8" r="0.87"/><circle cx="135.7" cy="101.9" r="0.42"/><circle cx="177.5" cy="225.8" r="0.83"/><circle cx="186.1" cy="347.4" r="0.89"/><circle cx="291.3" cy="269.1" r="1.75"/><circle cx="29.8" cy="189.4" r="1.08"/><circle cx="376.2" cy="328.4" r="0.73"/><circle cx="300.6" cy="4.0" r="1.23"/><circle cx="143.7" cy="60.0" r="0.76"/><circle cx="103.2" cy="476.8" r="0.93"/><circle cx="113.0" cy="338.9" r="0.47"/><circle cx="200.8" cy="60.2" r="1.15"/><circle cx="188.7" cy="257.2" r="2.05"/><circle cx="336.8" cy="454.5" r="2.34"/><circle cx="250.4" cy="411.5" r="3.62"/><circle cx="278.5" cy="514.5" r="0.49"/><circle cx="298.0" cy="499.2" r="3.98"/><circle cx="411.1" cy="398.5" r="2.13"/><circle cx="174.7" cy="78.0" r="0.87"/><circle cx="51.0" cy="194.4" r="2.71"/><circle cx="384.4" cy="405.9" r="0.58"/><circle cx="251.7" cy="35.5" r="0.62"/><circle cx="398.6" cy="96.6" r="1.77"/><circle cx="395.9" cy="101.7" r="2.91"/><circle cx="363.3" cy="298.1" r="4.02"/><circle cx="359.9" cy="473.5" r="0.97"/><circle cx="291.4" cy="54.4" r="0.77"/><circle cx="415.3" cy="267.4" r="0.71"/><circle cx="259.5" cy="295.7" r="1.33"/><circle cx="366.5" cy="501.8" r="2.65"/><circle cx="65.3" cy="373.0" r="0.58"/><circle cx="243.7" cy="268.3" r="2.82"/><circle cx="218.3" cy="247.0" r="0.88"/><circle cx="24.8" cy="183.6" r="4.67"/><circle cx="259.8" cy="360.0" r="0.67"/><circle cx="169.5" cy="258.6" r="1.22"/><circle cx="189.8" cy="493.0" r="3.15"/><circle cx="278.6" cy="16.3" r="0.57"/><circle cx="375.4" cy="367.6" r="1.45"/><circle cx="341.2" cy="145.3" r="0.82"/><circle cx="271.7" cy="262.2" r="3.34"/><circle cx="303.6" cy="408.7" r="0.80"/><circle cx="403.9" cy="246.5" r="0.64"/><circle cx="253.4" cy="28.4" r="2.87"/><circle cx="374.4" cy="107.2" r="3.21"/><circle cx="171.8" cy="256.8" r="0.53"/><circle cx="187.0" cy="243.4" r="4.53"/><circle cx="403.0" cy="386.6" r="1.07"/><circle cx="376.5" cy="15.6" r="0.92"/><circle cx="110.5" cy="514.9" r="0.72"/><circle cx="211.5" cy="200.0" r="0.71"/><circle cx="196.3" cy="430.0" r="0.75"/><circle cx="322.2" cy="95.3" r="2.52"/><circle cx="417.8" cy="76.1" r="1.20"/><circle cx="372.9" cy="481.8" r="2.73"/><circle cx="74.1" cy="359.8" r="4.11"/><circle cx="98.2" cy="159.8" r="2.07"/><circle cx="301.8" cy="89.4" r="0.77"/><circle cx="342.0" cy="284.2" r="0.45"/><circle cx="257.4" cy="239.3" r="0.90"/><circle cx="394.2" cy="529.8" r="1.98"/><circle cx="173.1" cy="259.3" r="0.51"/><circle cx="346.2" cy="535.9" r="4.32"/><circle cx="411.6" cy="320.7" r="0.64"/><circle cx="222.0" cy="304.4" r="3.96"/><circle cx="66.0" cy="345.9" r="0.48"/><circle cx="244.4" cy="6.9" r="1.21"/><circle cx="155.2" cy="219.9" r="0.46"/><circle cx="42.0" cy="437.8" r="0.41"/><circle cx="37.8" cy="364.5" r="0.73"/><circle cx="346.4" cy="244.1" r="0.67"/><path d="M287.6,454.1 L287.6,541.2" stroke="#16120d" stroke-width="2.49" stroke-linecap="round" fill="none"/><circle cx="287.6" cy="541.2" r="3.42"/><path d="M301.5,454.1 L301.5,507.7" stroke="#16120d" stroke-width="1.80" stroke-linecap="round" fill="none"/><circle cx="301.5" cy="507.7" r="4.53"/>
  </g>
</svg>