<svg xmlns="http://www.w3.org/2000/svg" viewBox="0 0 1000 560" width="1000" height="560">
  <defs>
    <filter id="r5071" x="-15%" y="-15%" width="130%" height="130%">
      <feTurbulence type="fractalNoise" baseFrequency="0.0203" numOctaves="3" seed="5071" result="n"/>
      <feDisplacementMap in="SourceGraphic" in2="n" scale="15.5" xChannelSelector="R" yChannelSelector="G"/>
    </filter>
  </defs>
  <g fill="#16120d" filter="url(#r5071)">
<path d="M248.6,419.8 C398.2,482.6 545.6,389.3 749.4,369.8" stroke="#16120d" stroke-width="17.0" stroke-linecap="round" fill="none"/><path d="M248.6,409.6 C398.2,472.4 545.6,379.1 749.4,359.6" stroke="#16120d" stroke-width="1.86" stroke-linecap="round" fill="none" opacity="0.64"/><path d="M248.6,430.4 C398.2,493.2 545.6,399.9 749.4,380.3" stroke="#16120d" stroke-width="0.62" stroke-linecap="round" fill="none" opacity="0.65"/><path d="M749.4,369.8 L794.7,392.6" stroke="#16120d" stroke-width="1.56" stroke-linecap="round" fill="none"/><circle cx="794.7" cy="392.6" r="2.96"/><path d="M749.4,369.8 L771.0,363.2" stroke="#16120d" stroke-width="2.14" stroke-linecap="round" fill="none"/><circle cx="771.0" cy="363.2" r="2.63"/><path d="M749.4,369.8 L824.6,309.8" stroke="#16120d" stroke-width="0.66" stroke-linecap="round" fill="none"/><circle cx="824.6" cy="309.8" r="1.18"/><path d="M749.4,369.8 L809.8,420.4" stroke="#16120d" stroke-width="1.44" stroke-linecap="round" fill="none"/><circle cx="809.8" cy="420.4" r="2.91"/><path d="M749.4,369.8 L829.9,429.2" stroke="#16120d" stroke-width="0.98" stroke-linecap="round" fill="none"/><circle cx="829.9" cy="429.2" r="1.65"/><path d="M194.3,345.8 C316.6,270.4 401.6,385.1 502.1,377.5" stroke="#16120d" stroke-width="28.9" stroke-linecap="round" fill="none"/><path d="M194.3,331.2 C316.6,255.8 401.6,370.5 502.1,362.9" stroke="#16120d" stroke-width="1.52" stroke-linecap="round" fill="none" opacity="0.83"/><path d="M194.3,346.5 C316.6,271.1 401.6,385.7 502.1,378.2" stroke="#16120d" stroke-width="0.76" stroke-linecap="round" fill="none" opacity="0.79"/><path d="M502.1,377.5 L532.6,394.5" stroke="#16120d" stroke-width="1.52" stroke-linecap="round" fill="none"/><circle cx="532.6" cy="394.5" r="2.01"/><path d="M502.1,377.5 L542.1,349.4" stroke="#16120d" stroke-width="1.68" stroke-linecap="round" fill="none"/><circle cx="542.1" cy="349.4" r="2.72"/><path d="M502.1,377.5 L543.6,385.3" stroke="#16120d" stroke-width="1.99" stroke-linecap="round" fill="none"/><circle cx="543.6" cy="385.3" r="1.14"/><path d="M502.1,377.5 L572.6,310.8" stroke="#16120d" stroke-width="1.33" stroke-linecap="round" fill="none"/><circle cx="572.6" cy="310.8" r="1.64"/><path d="M502.1,377.5 L557.4,403.3" stroke="#16120d" stroke-width="2.05" stroke-linecap="round" fill="none"/><circle cx="557.4" cy="403.3" r="1.90"/><path d="M502.1,377.5 L570.1,439.1" stroke="#16120d" stroke-width="0.51" stroke-linecap="round" fill="none"/><circle cx="570.1" cy="439.1" r="0.87"/><path d="M502.1,377.5 L560.7,352.8" stroke="#16120d" stroke-width="0.74" stroke-linecap="round" fill="none"/><circle cx="560.7" cy="352.8" r="1.66"/><path d="M502.1,377.5 L539.1,341.0" stroke="#16120d" stroke-width="1.42" stroke-linecap="round" fill="none"/><circle cx="539.1" cy="341.0" r="1.08"/><path d="M502.1,377.5 L531.3,382.8" stroke="#16120d" stroke-width="1.05" stroke-linecap="round" fill="none"/><circle cx="531.3" cy="382.8" r="2.58"/><path d="M276.1,89.5 C400.1,115.9 632.5,24.6 761.4,132.0" stroke="#16120d" stroke-width="22.4" stroke-linecap="round" fill="none"/><path d="M276.1,98.4 C400.1,124.8 632.5,33.6 761.4,141.0" stroke="#16120d" stroke-width="1.35" stroke-linecap="round" fill="none" opacity="0.66"/><path d="M276.1,91.0 C400.1,117.4 632.5,26.2 761.4,133.5" stroke="#16120d" stroke-width="1.18" stroke-linecap="round" fill="none" opacity="0.61"/><path d="M761.4,132.0 L781.2,128.7" stroke="#16120d" stroke-width="0.63" stroke-linecap="round" fill="none"/><circle cx="781.2" cy="128.7" r="1.76"/><path d="M761.4,132.0 L851.3,176.9" stroke="#16120d" stroke-width="0.90" stroke-linecap="round" fill="none"/><circle cx="851.3" cy="176.9" r="0.99"/><path d="M761.4,132.0 L776.7,118.1" stroke="#16120d" stroke-width="0.62" stroke-linecap="round" fill="none"/><circle cx="776.7" cy="118.1" r="2.32"/><path d="M761.4,132.0 L820.9,138.3" stroke="#16120d" stroke-width="1.91" stroke-linecap="round" fill="none"/><circle cx="820.9" cy="138.3" r="1.35"/><path d="M761.4,132.0 L820.1,164.0" stroke="#16120d" stroke-width="1.62" stroke-linecap="round" fill="none"/><circle cx="820.1" cy="164.0" r="1.51"/><path d="M761.4,132.0 L786.5,144.5" stroke="#16120d" stroke-width="2.05" stroke-linecap="round" fill="none"/><circle cx="786.5" cy="144.5" r="2.31"/><path d="M761.4,132.0 L840.9,186.2" stroke="#16120d" stroke-width="0.58" stroke-linecap="round" fill="none"/><circle cx="840.9" cy="186.2" r="0.67"/><path d="M761.4,132.0 L778.1,131.8" stroke="#16120d" stroke-width="1.30" stroke-linecap="round" fill="none"/><circle cx="778.1" cy="131.8" r="0.61"/><path d="M761.4,132.0 L776.2,123.8" stroke="#16120d" stroke-width="1.36" stroke-linecap="round" fill="none"/><circle cx="776.2" cy="123.8" r="3.09"/><path d="M761.4,132.0 L793.4,133.4" stroke="#16120d" stroke-width="1.13" stroke-linecap="round" fill="none"/><circle cx="793.4" cy="133.4" r="2.98"/><path d="M275.8,317.8 C417.7,283.0 583.5,384.2 786.2,350.1" stroke="#16120d" stroke-width="16.2" stroke-linecap="round" fill="none"/><path d="M275.8,317.3 C417.7,282.6 583.5,383.7 786.2,349.6" stroke="#16120d" stroke-width="1.55" stroke-linecap="round" fill="none" opacity="0.57"/><path d="M275.8,318.0 C417.7,283.2 583.5,384.4 786.2,350.3" stroke="#16120d" stroke-width="1.63" stroke-linecap="round" fill="none" opacity="0.96"/><path d="M275.8,320.7 C417.7,285.9 583.5,387.0 786.2,352.9" stroke="#16120d" stroke-width="0.91" stroke-linecap="round" fill="none" opacity="0.65"/><path d="M786.2,350.1 L861.3,414.2" stroke="#16120d" stroke-width="1.35" stroke-linecap="round" fill="none"/><circle cx="861.3" cy="414.2" r="2.38"/><path d="M786.2,350.1 L866.2,390.8" stroke="#16120d" stroke-width="0.80" stroke-linecap="round" fill="none"/><circle cx="866.2" cy="390.8" r="1.38"/><path d="M786.2,350.1 L818.5,349.7" stroke="#16120d" stroke-width="1.28" stroke-linecap="round" fill="none"/><circle cx="818.5" cy="349.7" r="1.36"/><path d="M786.2,350.1 L853.2,293.1" stroke="#16120d" stroke-width="0.94" stroke-linecap="round" fill="none"/><circle cx="853.2" cy="293.1" r="0.91"/><path d="M786.2,350.1 L828.0,380.6" stroke="#16120d" stroke-width="1.70" stroke-linecap="round" fill="none"/><circle cx="828.0" cy="380.6" r="0.61"/><path d="M786.2,350.1 L854.8,362.6" stroke="#16120d" stroke-width="1.02" stroke-linecap="round" fill="none"/><circle cx="854.8" cy="362.6" r="2.53"/><path d="M786.2,350.1 L818.5,381.2" stroke="#16120d" stroke-width="1.14" stroke-linecap="round" fill="none"/><circle cx="818.5" cy="381.2" r="2.11"/><path d="M786.2,350.1 L849.0,326.4" stroke="#16120d" stroke-width="1.82" stroke-linecap="round" fill="none"/><circle cx="849.0" cy="326.4" r="2.64"/><path d="M786.2,350.1 L883.4,354.4" stroke="#16120d" stroke-width="1.14" stroke-linecap="round" fill="none"/><circle cx="883.4" cy="354.4" r="2.30"/><path d="M786.2,350.1 L799.8,344.5" stroke="#16120d" stroke-width="2.06" stroke-linecap="round" fill="none"/><circle cx="799.8" cy="344.5" r="0.60"/><path d="M211.1,171.7 C339.1,241.2 516.7,205.8 638.6,179.4" stroke="#16120d" stroke-width="16.1" stroke-linecap="round" fill="none"/><path d="M211.1,176.5 C339.1,246.0 516.7,210.5 638.6,184.1" stroke="#16120d" stroke-width="1.43" stroke-linecap="round" fill="none" opacity="0.66"/><path d="M211.1,174.2 C339.1,243.7 516.7,208.2 638.6,181.9" stroke="#16120d" stroke-width="1.30" stroke-linecap="round" fill="none" opacity="0.68"/><path d="M638.6,179.4 L711.3,220.6" stroke="#16120d" stroke-width="0.59" stroke-linecap="round" fill="none"/><circle cx="711.3" cy="220.6" r="2.66"/><path d="M638.6,179.4 L673.2,168.4" stroke="#16120d" stroke-width="0.86" stroke-linecap="round" fill="none"/><circle cx="673.2" cy="168.4" r="1.40"/><path d="M638.6,179.4 L709.4,207.2" stroke="#16120d" stroke-width="2.05" stroke-linecap="round" fill="none"/><circle cx="709.4" cy="207.2" r="2.58"/><path d="M638.6,179.4 L672.5,181.1" stroke="#16120d" stroke-width="0.85" stroke-linecap="round" fill="none"/><circle cx="672.5" cy="181.1" r="2.20"/><path d="M638.6,179.4 L696.5,141.8" stroke="#16120d" stroke-width="0.74" stroke-linecap="round" fill="none"/><circle cx="696.5" cy="141.8" r="2.45"/><path d="M638.6,179.4 L675.8,171.3" stroke="#16120d" stroke-width="0.91" stroke-linecap="round" fill="none"/><circle cx="675.8" cy="171.3" r="2.16"/><path d="M638.6,179.4 L683.5,151.1" stroke="#16120d" stroke-width="0.94" stroke-linecap="round" fill="none"/><circle cx="683.5" cy="151.1" r="0.77"/><path d="M638.6,179.4 L695.5,136.6" stroke="#16120d" stroke-width="0.60" stroke-linecap="round" fill="none"/><circle cx="695.5" cy="136.6" r="1.80"/><path d="M638.6,179.4 L676.7,198.1" stroke="#16120d" stroke-width="1.75" stroke-linecap="round" fill="none"/><circle cx="676.7" cy="198.1" r="1.11"/><path d="M247.1,220.9 C344.9,265.7 496.3,191.8 585.8,253.0" stroke="#16120d" stroke-width="16.0" stroke-linecap="round" fill="none"/><path d="M247.1,217.9 C344.9,262.7 496.3,188.9 585.8,250.1" stroke="#16120d" stroke-width="1.30" stroke-linecap="round" fill="none" opacity="0.93"/><path d="M247.1,228.4 C344.9,273.1 496.3,199.3 585.8,260.5" stroke="#16120d" stroke-width="0.90" stroke-linecap="round" fill="none" opacity="0.66"/><path d="M247.1,222.2 C344.9,267.0 496.3,193.2 585.8,254.4" stroke="#16120d" stroke-width="1.23" stroke-linecap="round" fill="none" opacity="0.91"/><path d="M247.1,212.0 C344.9,256.8 496.3,182.9 585.8,244.1" stroke="#16120d" stroke-width="2.11" stroke-linecap="round" fill="none" opacity="0.56"/><path d="M247.1,226.3 C344.9,271.1 496.3,197.2 585.8,258.4" stroke="#16120d" stroke-width="1.41" stroke-linecap="round" fill="none" opacity="0.80"/><path d="M585.8,253.0 L600.8,254.5" stroke="#16120d" stroke-width="1.69" stroke-linecap="round" fill="none"/><circle cx="600.8" cy="254.5" r="2.78"/><path d="M585.8,253.0 L650.0,305.7" stroke="#16120d" stroke-width="0.55" stroke-linecap="round" fill="none"/><circle cx="650.0" cy="305.7" r="1.39"/><path d="M585.8,253.0 L612.3,249.1" stroke="#16120d" stroke-width="1.90" stroke-linecap="round" fill="none"/><circle cx="612.3" cy="249.1" r="2.33"/><path d="M585.8,253.0 L638.8,251.0" stroke="#16120d" stroke-width="1.29" stroke-linecap="round" fill="none"/><circle cx="638.8" cy="251.0" r="0.78"/><path d="M585.8,253.0 L677.8,261.3" stroke="#16120d" stroke-width="1.37" stroke-linecap="round" fill="none"/><circle cx="677.8" cy="261.3" r="1.14"/><path d="M209.3,181.3 C340.0,232.7 524.3,184.2 702.2,207.3" stroke="#16120d" stroke-width="20.2" stroke-linecap="round" fill="none"/><path d="M209.3,190.9 C340.0,242.2 524.3,193.8 702.2,216.9" stroke="#16120d" stroke-width="1.42" stroke-linecap="round" fill="none" opacity="0.69"/><path d="M209.3,173.7 C340.0,225.0 524.3,176.5 702.2,199.6" stroke="#16120d" stroke-width="0.99" stroke-linecap="round" fill="none" opacity="0.54"/><path d="M209.3,191.3 C340.0,242.7 524.3,194.2 702.2,217.3" stroke="#16120d" stroke-width="1.95" stroke-linecap="round" fill="none" opacity="0.56"/><path d="M209.3,174.3 C340.0,225.7 524.3,177.2 702.2,200.3" stroke="#16120d" stroke-width="1.68" stroke-linecap="round" fill="none" opacity="0.85"/><path d="M702.2,207.3 L739.3,176.0" stroke="#16120d" stroke-width="2.19" stroke-linecap="round" fill="none"/><circle cx="739.3" cy="176.0" r="2.65"/><path d="M702.2,207.3 L717.2,209.0" stroke="#16120d" stroke-width="1.96" stroke-linecap="round" fill="none"/><circle cx="717.2" cy="209.0" r="1.48"/><path d="M702.2,207.3 L731.3,208.3" stroke="#16120d" stroke-width="1.27" stroke-linecap="round" fill="none"/><circle cx="731.3" cy="208.3" r="2.47"/><path d="M702.2,207.3 L746.9,249.0" stroke="#16120d" stroke-width="1.94" stroke-linecap="round" fill="none"/><circle cx="746.9" cy="249.0" r="3.10"/><path d="M702.2,207.3 L771.1,199.6" stroke="#16120d" stroke-width="1.41" stroke-linecap="round" fill="none"/><circle cx="771.1" cy="199.6" r="2.81"/><path d="M271.6,430.0 C453.9,359.2 633.3,352.6 824.8,436.6" stroke="#16120d" stroke-width="5.5" stroke-linecap="round" fill="none"/><path d="M271.6,430.1 C453.9,359.3 633.3,352.6 824.8,436.6" stroke="#16120d" stroke-width="1.37" stroke-linecap="round" fill="none" opacity="0.79"/><path d="M271.6,427.3 C453.9,356.5 633.3,349.8 824.8,433.8" stroke="#16120d" stroke-width="1.13" stroke-linecap="round" fill="none" opacity="0.79"/><path d="M271.6,432.1 C453.9,361.3 633.3,354.6 824.8,438.6" stroke="#16120d" stroke-width="0.78" stroke-linecap="round" fill="none" opacity="0.92"/><path d="M271.6,428.8 C453.9,357.9 633.3,351.3 824.8,435.3" stroke="#16120d" stroke-width="1.49" stroke-linecap="round" fill="none" opacity="0.75"/><path d="M824.8,436.6 L911.7,440.6" stroke="#16120d" stroke-width="2.18" stroke-linecap="round" fill="none"/><circle cx="911.7" cy="440.6" r="2.68"/><path d="M824.8,436.6 L882.8,467.9" stroke="#16120d" stroke-width="1.59" stroke-linecap="round" fill="none"/><circle cx="882.8" cy="467.9" r="1.29"/><path d="M824.8,436.6 L860.4,433.2" stroke="#16120d" stroke-width="1.37" stroke-linecap="round" fill="none"/><circle cx="860.4" cy="433.2" r="2.41"/><path d="M824.8,436.6 L888.2,480.9" stroke="#16120d" stroke-width="1.31" stroke-linecap="round" fill="none"/><circle cx="888.2" cy="480.9" r="2.18"/><path d="M171.0,187.3 C359.3,155.3 532.2,270.7 688.7,163.1" stroke="#16120d" stroke-width="7.3" stroke-linecap="round" fill="none"/><path d="M171.0,186.8 C359.3,154.9 532.2,270.3 688.7,162.6" stroke="#16120d" stroke-width="1.97" stroke-linecap="round" fill="none" opacity="0.76"/><path d="M171.0,187.3 C359.3,155.4 532.2,270.8 688.7,163.1" stroke="#16120d" stroke-width="0.72" stroke-linecap="round" fill="none" opacity="0.59"/><path d="M171.0,183.5 C359.3,151.6 532.2,267.0 688.7,159.3" stroke="#16120d" stroke-width="0.89" stroke-linecap="round" fill="none" opacity="0.81"/><path d="M171.0,191.9 C359.3,160.0 532.2,275.4 688.7,167.7" stroke="#16120d" stroke-width="0.87" stroke-linecap="round" fill="none" opacity="0.68"/><path d="M171.0,191.6 C359.3,159.6 532.2,275.0 688.7,167.4" stroke="#16120d" stroke-width="2.15" stroke-linecap="round" fill="none" opacity="0.53"/><path d="M688.7,163.1 L753.2,196.6" stroke="#16120d" stroke-width="0.97" stroke-linecap="round" fill="none"/><circle cx="753.2" cy="196.6" r="2.46"/><path d="M688.7,163.1 L745.9,173.6" stroke="#16120d" stroke-width="0.57" stroke-linecap="round" fill="none"/><circle cx="745.9" cy="173.6" r="2.65"/><path d="M688.7,163.1 L712.4,181.5" stroke="#16120d" stroke-width="1.86" stroke-linecap="round" fill="none"/><circle cx="712.4" cy="181.5" r="1.00"/><path d="M688.7,163.1 L762.4,162.9" stroke="#16120d" stroke-width="0.77" stroke-linecap="round" fill="none"/><circle cx="762.4" cy="162.9" r="0.79"/><path d="M688.7,163.1 L714.1,181.9" stroke="#16120d" stroke-width="2.16" stroke-linecap="round" fill="none"/><circle cx="714.1" cy="181.9" r="1.68"/><path d="M688.7,163.1 L716.1,163.6" stroke="#16120d" stroke-width="1.88" stroke-linecap="round" fill="none"/><circle cx="716.1" cy="163.6" r="0.92"/><path d="M688.7,163.1 L757.5,213.6" stroke="#16120d" stroke-width="1.72" stroke-linecap="round" fill="none"/><circle cx="757.5" cy="213.6" r="2.43"/><path d="M688.7,163.1 L767.4,107.7" stroke="#16120d" stroke-width="0.94" stroke-linecap="round" fill="none"/><circle cx="767.4" cy="107.7" r="2.51"/><path d="M688.7,163.1 L710.5,165.9" stroke="#16120d" stroke-width="1.39" stroke-linecap="round" fill="none"/><circle cx="710.5" cy="165.9" r="2.85"/><path d="M164.1,493.6 C324.2,526.1 417.1,421.0 549.6,495.6" stroke="#16120d" stroke-width="17.9" stroke-linecap="round" fill="none"/><path d="M164.1,495.0 C324.2,527.5 417.1,422.3 549.6,496.9" stroke="#16120d" stroke-width="0.48" stroke-linecap="round" fill="none" opacity="0.59"/><path d="M164.1,495.9 C324.2,528.4 417.1,423.3 549.6,497.9" stroke="#16120d" stroke-width="2.18" stroke-linecap="round" fill="none" opacity="0.69"/><path d="M164.1,505.0 C324.2,537.5 417.1,432.3 549.6,506.9" stroke="#16120d" stroke-width="1.62" stroke-linecap="round" fill="none" opacity="0.54"/><path d="M164.1,483.0 C324.2,515.6 417.1,410.4 549.6,485.0" stroke="#16120d" stroke-width="0.55" stroke-linecap="round" fill="none" opacity="0.57"/><path d="M164.1,487.6 C324.2,520.1 417.1,414.9 549.6,489.5" stroke="#16120d" stroke-width="0.87" stroke-linecap="round" fill="none" opacity="0.68"/><path d="M549.6,495.6 L607.4,509.2" stroke="#16120d" stroke-width="0.85" stroke-linecap="round" fill="none"/><circle cx="607.4" cy="509.2" r="1.76"/><path d="M549.6,495.6 L623.5,505.5" stroke="#16120d" stroke-width="1.69" stroke-linecap="round" fill="none"/><circle cx="623.5" cy="505.5" r="2.73"/><path d="M549.6,495.6 L620.5,452.9" stroke="#16120d" stroke-width="1.33" stroke-linecap="round" fill="none"/><circle cx="620.5" cy="452.9" r="0.79"/><path d="M549.6,495.6 L568.0,487.5" stroke="#16120d" stroke-width="1.22" stroke-linecap="round" fill="none"/><circle cx="568.0" cy="487.5" r="2.45"/><path d="M549.6,495.6 L642.9,491.4" stroke="#16120d" stroke-width="0.63" stroke-linecap="round" fill="none"/><circle cx="642.9" cy="491.4" r="2.85"/><path d="M549.6,495.6 L614.3,551.1" stroke="#16120d" stroke-width="1.18" stroke-linecap="round" fill="none"/><circle cx="614.3" cy="551.1" r="1.87"/><path d="M549.6,495.6 L570.9,492.9" stroke="#16120d" stroke-width="0.99" stroke-linecap="round" fill="none"/><circle cx="570.9" cy="492.9" r="2.10"/><path d="M79.5,77.9 C337.6,28.4 546.4,75.4 892.3,39.5" stroke="#16120d" stroke-width="13.5" stroke-linecap="round" fill="none"/><path d="M79.5,78.0 C337.6,28.4 546.4,75.5 892.3,39.6" stroke="#16120d" stroke-width="1.42" stroke-linecap="round" fill="none" opacity="0.66"/><path d="M79.5,81.0 C337.6,31.4 546.4,78.5 892.3,42.6" stroke="#16120d" stroke-width="1.28" stroke-linecap="round" fill="none" opacity="0.70"/><path d="M79.5,78.8 C337.6,29.2 546.4,76.3 892.3,40.4" stroke="#16120d" stroke-width="1.60" stroke-linecap="round" fill="none" opacity="0.51"/><path d="M79.5,77.0 C337.6,27.4 546.4,74.5 892.3,38.6" stroke="#16120d" stroke-width="1.24" stroke-linecap="round" fill="none" opacity="0.74"/><path d="M892.3,39.5 L907.0,40.3" stroke="#16120d" stroke-width="1.32" stroke-linecap="round" fill="none"/><circle cx="907.0" cy="40.3" r="0.79"/><path d="M892.3,39.5 L955.5,74.7" stroke="#16120d" stroke-width="2.15" stroke-linecap="round" fill="none"/><circle cx="955.5" cy="74.7" r="2.79"/><path d="M892.3,39.5 L915.2,25.4" stroke="#16120d" stroke-width="0.84" stroke-linecap="round" fill="none"/><circle cx="915.2" cy="25.4" r="0.77"/><path d="M892.3,39.5 L930.5,46.9" stroke="#16120d" stroke-width="1.38" stroke-linecap="round" fill="none"/><circle cx="930.5" cy="46.9" r="2.44"/><path d="M892.3,39.5 L937.7,21.1" stroke="#16120d" stroke-width="1.41" stroke-linecap="round" fill="none"/><circle cx="937.7" cy="21.1" r="0.94"/><path d="M892.3,39.5 L907.2,52.9" stroke="#16120d" stroke-width="1.33" stroke-linecap="round" fill="none"/><circle cx="907.2" cy="52.9" r="2.09"/><path d="M892.3,39.5 L911.9,29.1" stroke="#16120d" stroke-width="0.76" stroke-linecap="round" fill="none"/><circle cx="911.9" cy="29.1" r="2.51"/><path d="M892.3,39.5 L940.2,61.0" stroke="#16120d" stroke-width="0.63" stroke-linecap="round" fill="none"/><circle cx="940.2" cy="61.0" r="1.31"/><path d="M892.3,39.5 L921.7,30.1" stroke="#16120d" stroke-width="0.71" stroke-linecap="round" fill="none"/><circle cx="921.7" cy="30.1" r="0.87"/><circle cx="742.2" cy="476.2" r="1.16"/><circle cx="875.8" cy="18.0" r="1.14"/><circle cx="944.0" cy="205.7" r="0.72"/><circle cx="425.2" cy="116.3" r="1.98"/><circle cx="124.6" cy="15.3" r="1.60"/><circle cx="507.9" cy="516.0" r="1.06"/><circle cx="67.6" cy="316.6" r="3.41"/><circle cx="826.3" cy="6.2" r="1.14"/><circle cx="89.0" cy="66.7" r="3.17"/><circle cx="674.6" cy="290.7" r="1.48"/><circle cx="866.8" cy="382.2" r="1.16"/><circle cx="209.0" cy="557.6" r="1.74"/><circle cx="275.7" cy="433.8" r="0.73"/><circle cx="754.1" cy="379.4" r="1.01"/><circle cx="760.0" cy="247.4" r="2.06"/><circle cx="319.3" cy="352.9" r="1.49"/><circle cx="487.3" cy="493.5" r="0.55"/><circle cx="843.7" cy="67.6" r="1.45"/><circle cx="569.8" cy="201.1" r="0.47"/><circle cx="252.8" cy="378.8" r="3.61"/><circle cx="878.3" cy="509.4" r="1.69"/><circle cx="26.8" cy="213.6" r="2.99"/><circle cx="496.6" cy="554.8" r="0.61"/><circle cx="737.2" cy="514.1" r="0.74"/><circle cx="56.6" cy="312.5" r="3.87"/><circle cx="516.1" cy="193.5" r="3.50"/><circle cx="978.4" cy="255.2" r="0.47"/><circle cx="349.0" cy="430.9" r="0.73"/><circle cx="310.3" cy="279.7" r="1.82"/><circle cx="847.7" cy="328.2" r="2.14"/><circle cx="643.0" cy="406.1" r="2.38"/><circle cx="637.4" cy="141.8" r="2.11"/><circle cx="26.9" cy="284.4" r="2.58"/><circle cx="312.6" cy="496.1" r="1.09"/><circle cx="279.4" cy="144.0" r="0.96"/><circle cx="51.1" cy="123.1" r="0.77"/><circle cx="729.6" cy="231.9" r="1.98"/><circle cx="661.6" cy="272.8" r="0.40"/><circle cx="26.0" cy="397.0" r="1.38"/><circle cx="432.4" cy="292.3" r="2.73"/><circle cx="996.7" cy="546.6" r="1.51"/><circle cx="58.1" cy="316.2" r="0.51"/><circle cx="733.9" cy="190.0" r="1.67"/><circle cx="912.6" cy="241.5" r="1.00"/><circle cx="98.8" cy="259.6" r="2.70"/><circle cx="550.9" cy="41.6" r="2.12"/><circle cx="530.6" cy="494.6" r="0.46"/><circle cx="923.9" cy="500.4" r="1.44"/><circle cx="440.8" cy="256.7" r="0.70"/><circle cx="830.9" cy="204.1" r="3.77"/><circle cx="358.8" cy="66.4" r="1.50"/><circle cx="534.6" cy="513.7" r="1.36"/><circle cx="82.2" cy="228.1" r="0.49"/><circle cx="627.0" cy="255.4" r="0.50"/><circle cx="924.3" cy="404.6" r="0.93"/><circle cx="579.2" cy="17.4" r="2.37"/><circle cx="479.6" cy="349.1" r="0.54"/><circle cx="428.9" cy="158.6" r="0.40"/><circle cx="153.4" cy="216.5" r="1.81"/><circle cx="837.7" cy="106.2" r="1.67"/><circle cx="621.1" cy="417.6" r="0.50"/><circle cx="304.8" cy="90.3" r="0.68"/><circle cx="801.9" cy="489.8" r="0.41"/><circle cx="721.9" cy="22.4" r="0.68"/><circle cx="101.3" cy="118.9" r="0.43"/><circle cx="784.6" cy="261.0" r="1.06"/><circle cx="982.2" cy="213.2" r="0.51"/><circle cx="301.6" cy="10.7" r="0.52"/><circle cx="223.1" cy="12.6" r="0.73"/><circle cx="142.7" cy="102.7" r="0.66"/><circle cx="978.7" cy="188.2" r="0.42"/><circle cx="880.6" cy="199.5" r="0.76"/><circle cx="220.4" cy="87.9" r="3.10"/><circle cx="40.8" cy="334.4" r="3.37"/><circle cx="342.6" cy="206.8" r="1.07"/><circle cx="851.8" cy="469.2" r="4.40"/><circle cx="911.9" cy="450.5" r="0.41"/><circle cx="381.3" cy="546.4" r="0.58"/><circle cx="615.6" cy="388.0" r="1.28"/><circle cx="314.6" cy="460.3" r="2.21"/><circle cx="213.6" cy="190.7" r="1.44"/><circle cx="787.6" cy="323.3" r="2.85"/><circle cx="34.8" cy="73.9" r="1.00"/><circle cx="217.4" cy="507.3" r="0.80"/><circle cx="391.3" cy="109.2" r="1.74"/><circle cx="48.7" cy="371.1" r="1.39"/><circle cx="804.8" cy="307.3" r="0.42"/><circle cx="352.2" cy="178.3" r="1.62"/><circle cx="238.2" cy="555.9" r="0.74"/><circle cx="813.1" cy="244.0" r="1.62"/><circle cx="105.4" cy="559.1" r="1.52"/><circle cx="749.6" cy="285.4" r="0.98"/><circle cx="788.7" cy="204.7" r="0.46"/><circle cx="469.7" cy="105.0" r="1.14"/><circle cx="216.3" cy="137.6" r="0.41"/><circle cx="995.3" cy="279.7" r="3.20"/><circle cx="230.4" cy="69.9" r="1.81"/><circle cx="785.7" cy="438.1" r="0.65"/><circle cx="547.5" cy="312.7" r="0.75"/><circle cx="465.5" cy="113.2" r="0.89"/><circle cx="464.3" cy="389.0" r="1.40"/><circle cx="719.0" cy="540.7" r="3.20"/><circle cx="768.9" cy="229.4" r="2.24"/><circle cx="707.5" cy="124.0" r="0.78"/><circle cx="150.2" cy="418.0" r="0.48"/><circle cx="411.4" cy="185.4" r="0.56"/><circle cx="653.7" cy="428.9" r="2.02"/><circle cx="386.3" cy="60.6" r="0.76"/><circle cx="77.8" cy="250.2" r="0.47"/><circle cx="559.0" cy="432.6" r="1.79"/><circle cx="124.6" cy="267.7" r="1.23"/><circle cx="355.5" cy="350.1" r="1.11"/><circle cx="94.3" cy="92.4" r="0.45"/><circle cx="209.1" cy="50.2" r="1.68"/><circle cx="674.3" cy="497.1" r="0.42"/><circle cx="188.9" cy="307.8" r="2.25"/><circle cx="691.7" cy="53.4" r="1.34"/><circle cx="227.1" cy="332.2" r="1.11"/><circle cx="784.4" cy="469.4" r="0.83"/><circle cx="929.8" cy="420.7" r="1.19"/><circle cx="813.2" cy="319.4" r="0.54"/><circle cx="657.2" cy="381.3" r="1.57"/><circle cx="300.1" cy="247.5" r="1.07"/><circle cx="539.3" cy="325.2" r="1.75"/><circle cx="71.9" cy="547.4" r="0.89"/><circle cx="485.5" cy="179.5" r="2.38"/><circle cx="456.2" cy="538.5" r="2.08"/><circle cx="25.5" cy="158.6" r="1.21"/><circle cx="902.4" cy="400.9" r="0.48"/><circle cx="843.4" cy="202.7" r="3.30"/><circle cx="869.7" cy="360.7" r="0.62"/><circle cx="726.4" cy="5.3" r="2.12"/><circle cx="254.1" cy="500.7" r="0.83"/><circle cx="380.2" cy="407.5" r="0.53"/><circle cx="758.2" cy="199.4" r="1.05"/><circle cx="952.8" cy="180.2" r="1.83"/>
  </g>
</svg>