<svg xmlns="http://www.w3.org/2000/svg" viewBox="0 0 420 540" width="420" height="540">
  <defs>
    <filter id="r3041" x="-15%" y="-15%" width="130%" height="130%">
      <feTurbulence type="fractalNoise" baseFrequency="0.0320" numOctaves="3" seed="3041" result="n"/>
      <feDisplacementMap in="SourceGraphic" in2="n" scale="14.6" xChannelSelector="R" yChannelSelector="G"/>
    </filter>
  </defs>
  <g fill="#16120d" filter="url(#r3041)">
<path d="M274.9,175.1C277.8,180.3 249.8,185.9 245.1,194.9C240.5,203.9 251.9,224.1 246.9,228.9C241.9,233.7 223.4,227.6 215.1,223.8C206.8,219.9 203.4,208.2 197.1,205.6C190.8,203.1 181.4,211.1 177.3,208.6C173.2,206.0 176.4,195.9 172.5,190.3C168.5,184.7 158.7,182.6 153.6,175.1C148.5,167.6 138.6,151.6 141.9,145.2C145.2,138.8 165.5,142.1 173.6,136.9C181.6,131.8 182.7,118.0 190.1,114.2C197.5,110.4 210.4,110.7 217.9,114.4C225.4,118.1 233.4,128.0 235.0,136.2C236.7,144.4 220.9,157.3 227.6,163.8C234.2,170.2 271.9,169.9 274.9,175.1Z"/><path d="M181.9,185.1C182.5,187.9 181.5,192.4 179.4,195.2C177.3,198.0 171.7,202.6 169.3,201.7C166.8,200.8 166.2,192.6 164.5,189.8C162.8,187.1 159.4,187.2 158.9,185.1C158.4,183.0 159.7,179.0 161.5,177.3C163.2,175.6 166.8,174.6 169.3,174.7C171.7,174.9 174.1,176.4 176.2,178.2C178.3,179.9 181.4,182.2 181.9,185.1Z"/><path d="M239.3,206.7C238.2,209.9 232.1,211.6 229.4,213.0C226.7,214.3 226.7,213.3 223.1,214.9C219.4,216.4 210.1,223.7 207.4,222.3C204.8,220.9 206.0,210.9 206.9,206.7C207.8,202.4 210.3,197.9 213.0,196.6C215.7,195.4 219.2,199.7 223.1,199.2C227.0,198.7 233.6,192.2 236.3,193.4C239.0,194.7 240.5,203.4 239.3,206.7Z"/><path d="M175.4,175.9C173.8,180.0 166.8,178.3 163.5,183.5C160.3,188.7 159.6,205.7 155.9,206.9C152.2,208.1 145.6,195.7 141.2,190.6C136.9,185.4 129.1,180.0 129.8,175.9C130.6,171.7 141.4,168.9 145.8,165.7C150.1,162.5 151.3,158.0 155.9,156.8C160.5,155.6 170.0,155.4 173.2,158.5C176.5,161.7 177.0,171.7 175.4,175.9Z"/><path d="M226.6,350.8C221.7,366.0 244.4,380.2 240.4,387.0C236.5,393.9 214.5,382.4 202.9,392.0C191.2,401.5 181.3,442.5 170.6,444.3C159.9,446.2 154.6,413.4 138.7,403.1C122.9,392.9 87.4,397.1 75.6,382.7C63.7,368.3 58.8,332.6 67.7,316.6C76.6,300.7 111.5,295.2 128.9,287.2C146.3,279.1 156.8,271.4 172.2,268.4C187.6,265.4 205.0,264.8 221.3,269.4C237.5,273.9 268.8,282.2 269.7,295.8C270.6,309.4 231.5,335.6 226.6,350.8Z"/><path d="M109.0,321.4C109.0,324.8 105.6,328.0 102.9,331.5C100.2,335.0 97.2,341.4 92.8,342.5C88.4,343.5 78.7,341.2 76.5,337.7C74.3,334.2 80.0,327.3 79.5,321.4C79.0,315.5 71.3,305.6 73.5,302.1C75.7,298.6 87.9,299.0 92.8,300.6C97.7,302.1 100.2,307.9 102.9,311.3C105.5,314.8 109.0,318.1 109.0,321.4Z"/><path d="M145.9,341.0C145.5,345.5 141.0,350.4 137.5,353.1C134.1,355.8 129.5,357.2 125.4,357.3C121.3,357.3 118.2,356.3 112.8,353.6C107.5,350.9 93.7,345.5 93.3,341.0C93.0,336.5 105.6,331.1 110.9,326.5C116.3,321.9 120.5,313.5 125.4,313.5C130.3,313.4 136.7,321.7 140.1,326.3C143.5,330.9 146.3,336.5 145.9,341.0Z"/><path d="M231.6,165.2 L309.3,137.5" stroke="#16120d" stroke-width="1.36" stroke-linecap="round" fill="none"/><circle cx="309.3" cy="137.5" r="0.62"/><path d="M226.4,194.0 L327.0,279.0" stroke="#16120d" stroke-width="1.15" stroke-linecap="round" fill="none"/><circle cx="327.0" cy="279.0" r="1.26"/><path d="M221.9,151.9 L280.8,75.6" stroke="#16120d" stroke-width="0.58" stroke-linecap="round" fill="none"/><circle cx="280.8" cy="75.6" r="1.60"/><path d="M206.0,204.4 L214.3,327.9" stroke="#16120d" stroke-width="1.93" stroke-linecap="round" fill="none"/><circle cx="214.3" cy="327.9" r="2.67"/><path d="M198.0,146.4 L177.1,47.0" stroke="#16120d" stroke-width="1.02" stroke-linecap="round" fill="none"/><circle cx="177.1" cy="47.0" r="2.02"/><path d="M197.5,203.7 L174.3,305.9" stroke="#16120d" stroke-width="1.37" stroke-linecap="round" fill="none"/><circle cx="174.3" cy="305.9" r="0.78"/><path d="M164.9,397.0 L118.5,508.7" stroke="#16120d" stroke-width="0.73" stroke-linecap="round" fill="none"/><circle cx="118.5" cy="508.7" r="1.85"/><path d="M200.1,303.5 L261.6,121.3" stroke="#16120d" stroke-width="0.80" stroke-linecap="round" fill="none"/><circle cx="261.6" cy="121.3" r="2.83"/><path d="M162.4,395.9 L127.0,469.5" stroke="#16120d" stroke-width="1.78" stroke-linecap="round" fill="none"/><circle cx="127.0" cy="469.5" r="2.52"/><path d="M140.1,374.6 L18.5,440.4" stroke="#16120d" stroke-width="0.50" stroke-linecap="round" fill="none"/><circle cx="18.5" cy="440.4" r="1.51"/><path d="M232.9,361.4 L461.5,411.0" stroke="#16120d" stroke-width="1.39" stroke-linecap="round" fill="none"/><circle cx="461.5" cy="411.0" r="2.73"/><path d="M153.6,311.2 L15.6,131.5" stroke="#16120d" stroke-width="2.18" stroke-linecap="round" fill="none"/><circle cx="15.6" cy="131.5" r="1.47"/><path d="M168.4,303.4 L112.9,135.4" stroke="#16120d" stroke-width="1.40" stroke-linecap="round" fill="none"/><circle cx="112.9" cy="135.4" r="2.27"/><circle cx="158.1" cy="344.6" r="0.92"/><circle cx="104.0" cy="362.0" r="0.43"/><circle cx="85.4" cy="359.6" r="2.17"/><circle cx="274.7" cy="46.1" r="0.56"/><circle cx="310.8" cy="537.1" r="3.01"/><circle cx="309.9" cy="500.5" r="0.76"/><circle cx="31.2" cy="277.6" r="3.09"/><circle cx="289.0" cy="380.4" r="1.89"/><circle cx="128.3" cy="448.2" r="0.71"/><circle cx="193.7" cy="472.2" r="1.50"/><circle cx="330.1" cy="45.7" r="1.40"/><circle cx="344.0" cy="186.1" r="4.96"/><circle cx="198.1" cy="220.6" r="1.61"/><circle cx="373.8" cy="1.9" r="1.11"/><circle cx="307.5" cy="453.0" r="1.42"/><circle cx="225.4" cy="228.5" r="4.56"/><circle cx="81.4" cy="485.9" r="0.51"/><circle cx="403.3" cy="84.5" r="0.80"/><circle cx="67.4" cy="473.7" r="0.41"/><circle cx="69.8" cy="454.0" r="0.41"/><circle cx="245.2" cy="461.8" r="0.67"/><circle cx="306.8" cy="206.1" r="2.05"/><circle cx="330.2" cy="320.2" r="1.23"/><circle cx="314.3" cy="342.0" r="4.10"/><circle cx="339.4" cy="497.9" r="2.35"/><circle cx="52.9" cy="288.3" r="0.45"/><circle cx="106.5" cy="64.7" r="0.43"/><circle cx="414.3" cy="41.3" r="3.87"/><circle cx="404.1" cy="122.7" r="1.34"/><circle cx="263.5" cy="182.2" r="2.43"/><circle cx="246.8" cy="60.4" r="1.85"/><circle cx="296.2" cy="1.1" r="0.40"/><circle cx="332.6" cy="215.2" r="2.99"/><circle cx="101.1" cy="463.0" r="0.61"/><circle cx="138.9" cy="343.2" r="1.23"/><circle cx="69.9" cy="378.4" r="1.23"/><circle cx="102.9" cy="430.0" r="1.39"/><circle cx="345.0" cy="342.8" r="1.19"/><circle cx="193.7" cy="243.2" r="0.69"/><circle cx="76.6" cy="154.9" r="3.26"/><circle cx="384.8" cy="503.8" r="2.82"/><circle cx="196.6" cy="22.4" r="1.01"/><circle cx="170.2" cy="470.5" r="2.43"/><circle cx="228.1" cy="386.3" r="1.39"/><circle cx="202.7" cy="200.1" r="2.35"/><circle cx="368.7" cy="270.8" r="1.87"/><circle cx="405.7" cy="420.1" r="0.63"/><circle cx="388.8" cy="435.7" r="2.30"/><circle cx="68.9" cy="262.7" r="0.74"/><circle cx="410.5" cy="537.4" r="1.09"/><circle cx="50.3" cy="234.9" r="0.67"/><circle cx="287.4" cy="284.9" r="1.90"/><circle cx="95.2" cy="392.4" r="0.43"/><circle cx="228.5" cy="417.8" r="0.43"/><circle cx="66.2" cy="383.9" r="0.69"/><circle cx="273.0" cy="262.8" r="0.87"/><circle cx="224.4" cy="239.2" r="4.29"/><circle cx="13.2" cy="485.0" r="2.15"/><circle cx="306.2" cy="427.4" r="0.61"/><circle cx="151.8" cy="206.2" r="1.97"/><circle cx="211.9" cy="425.2" r="0.46"/><circle cx="230.0" cy="45.9" r="0.61"/><path d="M181.1,199.6 L181.1,241.1" stroke="#16120d" stroke-width="1.90" stroke-linecap="round" fill="none"/><circle cx="181.1" cy="241.1" r="2.44"/><path d="M195.2,199.6 L195.2,280.4" stroke="#16120d" stroke-width="1.86" stroke-linecap="round" fill="none"/><circle cx="195.2" cy="280.4" r="3.75"/>
  </g>
</svg>