<svg xmlns="http://www.w3.org/2000/svg" viewBox="0 0 420 540" width="420" height="540">
  <defs>
    <filter id="r2027" x="-15%" y="-15%" width="130%" height="130%">
      <feTurbulence type="fractalNoise" baseFrequency="0.0276" numOctaves="3" seed="2027" result="n"/>
      <feDisplacementMap in="SourceGraphic" in2="n" scale="19.9" xChannelSelector="R" yChannelSelector="G"/>
    </filter>
  </defs>
  <g fill="#16120d" filter="url(#r2027)">
<path d="M242.0,99.7C243.6,110.1 228.9,121.7 222.8,133.7C216.7,145.6 215.2,165.6 205.4,171.4C195.6,177.2 178.3,167.8 164.1,168.6C149.8,169.5 127.5,183.3 119.9,176.3C112.2,169.2 117.4,139.1 118.0,126.3C118.6,113.6 125.8,109.9 123.6,99.7C121.3,89.6 104.5,77.1 104.5,65.3C104.4,53.5 113.2,34.9 123.2,28.9C133.1,22.9 150.1,30.0 164.1,29.3C178.1,28.7 199.1,18.0 207.2,25.1C215.3,32.1 207.0,59.1 212.8,71.6C218.6,84.0 240.3,89.4 242.0,99.7Z"/><path d="M189.5,145.4C191.3,149.9 188.8,161.8 184.9,164.1C181.0,166.4 171.1,160.3 166.2,159.0C161.3,157.6 158.9,158.3 155.6,156.0C152.4,153.8 146.5,148.8 146.6,145.4C146.8,142.1 153.4,139.0 156.7,135.9C159.9,132.7 163.3,126.4 166.2,126.7C169.1,127.0 170.3,134.4 174.1,137.5C178.0,140.7 187.8,141.0 189.5,145.4Z"/><path d="M172.4,41.4C172.8,44.7 172.2,49.8 169.9,52.7C167.6,55.7 162.8,58.5 158.5,58.9C154.3,59.4 148.2,58.4 144.4,55.4C140.7,52.5 136.6,46.5 136.2,41.4C135.8,36.3 138.3,29.1 142.0,24.8C145.7,20.5 154.3,14.3 158.5,15.6C162.7,16.9 165.0,28.3 167.3,32.6C169.6,36.9 171.9,38.0 172.4,41.4Z"/><path d="M169.3,62.0C170.5,67.7 161.7,79.8 156.1,82.7C150.4,85.5 140.4,80.7 135.4,78.9C130.4,77.0 131.9,74.3 125.9,71.5C119.9,68.7 100.5,66.1 99.6,62.0C98.6,57.9 114.2,49.0 120.2,46.8C126.1,44.5 130.6,48.2 135.4,48.5C140.2,48.7 143.4,46.1 149.0,48.4C154.7,50.6 168.1,56.3 169.3,62.0Z"/><path d="M208.6,245.9C206.0,261.0 233.3,279.6 229.0,286.8C224.7,294.0 194.8,289.2 183.0,289.1C171.2,288.9 169.0,281.3 158.1,285.9C147.1,290.4 122.6,320.1 117.3,316.5C111.9,312.9 132.6,276.1 126.1,264.3C119.6,252.5 78.7,252.3 78.2,245.9C77.6,239.4 116.3,237.3 122.9,225.6C129.5,213.9 111.7,184.5 117.5,175.7C123.4,166.9 143.4,174.6 158.1,172.7C172.7,170.8 190.9,160.2 205.3,164.1C219.6,168.0 243.8,182.4 244.4,196.0C244.9,209.6 211.1,230.7 208.6,245.9Z"/><path d="M132.5,301.0C131.6,306.4 132.2,311.2 129.4,314.5C126.7,317.8 121.3,319.9 116.0,320.8C110.6,321.6 101.0,323.0 97.2,319.7C93.5,316.4 91.9,305.6 93.6,301.0C95.2,296.4 103.5,295.7 107.2,292.3C111.0,288.9 111.4,282.3 116.0,280.6C120.5,278.9 132.0,278.8 134.7,282.2C137.5,285.6 133.4,295.6 132.5,301.0Z"/><path d="M142.7,315.7C143.4,321.6 148.8,333.7 146.1,335.5C143.4,337.2 133.2,326.1 126.4,326.3C119.6,326.5 109.1,338.5 105.4,336.7C101.6,334.9 103.0,321.8 103.9,315.7C104.8,309.6 107.1,305.2 110.9,300.2C114.6,295.2 121.2,285.8 126.4,285.8C131.5,285.8 139.1,295.3 141.8,300.2C144.6,305.2 142.0,309.8 142.7,315.7Z"/><path d="M334.8,394.2C334.2,401.9 315.8,411.7 307.4,416.3C298.9,420.8 290.6,420.0 284.3,421.6C277.9,423.1 276.8,418.5 269.2,425.7C261.6,432.8 248.3,461.8 238.8,464.5C229.2,467.1 218.8,450.4 212.1,441.4C205.4,432.5 194.5,419.7 198.7,410.7C202.9,401.7 232.6,395.7 237.3,387.3C242.1,378.9 225.5,367.8 226.9,360.1C228.2,352.5 238.3,340.8 245.4,341.4C252.4,342.1 260.4,362.9 269.1,364.0C277.7,365.1 290.2,347.0 297.3,348.0C304.3,349.1 305.1,362.4 311.4,370.1C317.6,377.8 335.5,386.5 334.8,394.2Z"/><path d="M291.3,432.4C292.4,439.4 292.4,454.0 287.8,457.0C283.1,460.0 271.6,450.3 263.1,450.5C254.7,450.8 240.1,461.5 237.0,458.5C233.9,455.4 241.9,438.4 244.6,432.4C247.3,426.4 250.2,427.7 253.3,422.6C256.4,417.4 258.5,402.6 263.1,401.3C267.7,400.0 276.2,409.5 280.8,414.7C285.5,419.8 290.1,425.3 291.3,432.4Z"/><path d="M286.9,436.4C286.1,439.0 273.8,438.2 270.1,441.9C266.4,445.7 266.9,458.2 264.6,458.7C262.2,459.2 257.9,448.8 255.9,445.0C253.9,441.3 253.1,439.9 252.5,436.4C252.0,433.0 250.6,426.6 252.6,424.4C254.6,422.2 260.9,423.1 264.6,423.5C268.3,423.8 271.0,424.1 274.8,426.2C278.5,428.4 287.6,433.8 286.9,436.4Z"/><path d="M247.3,403.4C249.4,408.8 245.6,422.9 240.7,426.1C235.8,429.2 224.6,423.3 218.0,422.3C211.5,421.3 203.5,423.2 201.4,420.1C199.2,416.9 204.0,407.7 205.2,403.4C206.4,399.1 206.5,397.8 208.7,394.1C210.8,390.4 214.8,381.3 218.0,381.2C221.2,381.1 223.0,389.8 227.9,393.5C232.8,397.2 245.2,398.0 247.3,403.4Z"/><path d="M316.9,438.6C317.2,442.6 309.0,446.6 304.8,451.5C300.6,456.5 296.0,468.5 291.9,468.3C287.8,468.2 284.2,455.4 280.1,450.4C276.0,445.5 267.5,442.6 267.4,438.6C267.4,434.6 275.6,430.4 279.7,426.4C283.8,422.4 288.0,414.2 291.9,414.4C295.8,414.6 298.8,423.5 303.0,427.6C307.1,431.6 316.6,434.6 316.9,438.6Z"/><path d="M144.6,70.0 L72.5,-40.3" stroke="#16120d" stroke-width="2.06" stroke-linecap="round" fill="none"/><circle cx="72.5" cy="-40.3" r="0.69"/><path d="M148.4,131.6 L90.3,249.5" stroke="#16120d" stroke-width="1.43" stroke-linecap="round" fill="none"/><circle cx="90.3" cy="249.5" r="1.61"/><path d="M140.9,126.7 L91.5,184.5" stroke="#16120d" stroke-width="1.40" stroke-linecap="round" fill="none"/><circle cx="91.5" cy="184.5" r="1.78"/><path d="M195.8,83.7 L301.1,30.6" stroke="#16120d" stroke-width="0.69" stroke-linecap="round" fill="none"/><circle cx="301.1" cy="30.6" r="2.50"/><path d="M131.7,85.1 L61.0,53.3" stroke="#16120d" stroke-width="0.58" stroke-linecap="round" fill="none"/><circle cx="61.0" cy="53.3" r="1.19"/><path d="M190.6,76.1 L291.6,-13.5" stroke="#16120d" stroke-width="0.71" stroke-linecap="round" fill="none"/><circle cx="291.6" cy="-13.5" r="2.86"/><path d="M180.6,68.3 L224.9,-15.7" stroke="#16120d" stroke-width="1.83" stroke-linecap="round" fill="none"/><circle cx="224.9" cy="-15.7" r="3.14"/><path d="M183.9,281.0 L256.8,380.3" stroke="#16120d" stroke-width="1.18" stroke-linecap="round" fill="none"/><circle cx="256.8" cy="380.3" r="1.69"/><path d="M147.8,288.3 L128.6,367.6" stroke="#16120d" stroke-width="1.62" stroke-linecap="round" fill="none"/><circle cx="128.6" cy="367.6" r="2.09"/><path d="M173.5,286.7 L204.3,368.2" stroke="#16120d" stroke-width="1.04" stroke-linecap="round" fill="none"/><circle cx="204.3" cy="368.2" r="2.78"/><path d="M167.0,203.1 L184.6,119.0" stroke="#16120d" stroke-width="0.92" stroke-linecap="round" fill="none"/><circle cx="184.6" cy="119.0" r="1.47"/><path d="M188.5,277.1 L313.2,405.3" stroke="#16120d" stroke-width="0.99" stroke-linecap="round" fill="none"/><circle cx="313.2" cy="405.3" r="1.30"/><path d="M117.7,229.2 L46.9,199.8" stroke="#16120d" stroke-width="1.33" stroke-linecap="round" fill="none"/><circle cx="46.9" cy="199.8" r="2.40"/><path d="M159.5,289.5 L163.6,413.8" stroke="#16120d" stroke-width="1.14" stroke-linecap="round" fill="none"/><circle cx="163.6" cy="413.8" r="1.20"/><path d="M154.9,202.3 L149.7,131.2" stroke="#16120d" stroke-width="1.60" stroke-linecap="round" fill="none"/><circle cx="149.7" cy="131.2" r="0.96"/><path d="M186.9,278.6 L272.4,375.6" stroke="#16120d" stroke-width="1.06" stroke-linecap="round" fill="none"/><circle cx="272.4" cy="375.6" r="2.04"/><path d="M142.7,205.0 L68.8,7.8" stroke="#16120d" stroke-width="1.28" stroke-linecap="round" fill="none"/><circle cx="68.8" cy="7.8" r="2.13"/><path d="M118.1,263.5 L-42.1,334.2" stroke="#16120d" stroke-width="1.28" stroke-linecap="round" fill="none"/><circle cx="-42.1" cy="334.2" r="0.63"/><path d="M196.9,265.7 L282.5,309.4" stroke="#16120d" stroke-width="1.53" stroke-linecap="round" fill="none"/><circle cx="282.5" cy="309.4" r="1.38"/><path d="M125.7,275.1 L2.2,386.9" stroke="#16120d" stroke-width="1.25" stroke-linecap="round" fill="none"/><circle cx="2.2" cy="386.9" r="1.15"/><path d="M238.9,411.0 L188.1,443.2" stroke="#16120d" stroke-width="0.94" stroke-linecap="round" fill="none"/><circle cx="188.1" cy="443.2" r="1.33"/><path d="M234.5,400.0 L157.5,414.4" stroke="#16120d" stroke-width="0.71" stroke-linecap="round" fill="none"/><circle cx="157.5" cy="414.4" r="3.00"/><path d="M256.2,364.2 L240.6,313.0" stroke="#16120d" stroke-width="1.00" stroke-linecap="round" fill="none"/><circle cx="240.6" cy="313.0" r="0.67"/><path d="M272.5,363.7 L294.3,270.3" stroke="#16120d" stroke-width="1.19" stroke-linecap="round" fill="none"/><circle cx="294.3" cy="270.3" r="1.86"/><path d="M234.0,393.8 L99.4,392.0" stroke="#16120d" stroke-width="0.92" stroke-linecap="round" fill="none"/><circle cx="99.4" cy="392.0" r="3.10"/><path d="M251.1,422.2 L196.9,528.3" stroke="#16120d" stroke-width="1.22" stroke-linecap="round" fill="none"/><circle cx="196.9" cy="528.3" r="2.24"/><path d="M243.8,371.4 L183.1,307.1" stroke="#16120d" stroke-width="0.57" stroke-linecap="round" fill="none"/><circle cx="183.1" cy="307.1" r="1.71"/><path d="M290.1,413.5 L363.9,471.1" stroke="#16120d" stroke-width="1.81" stroke-linecap="round" fill="none"/><circle cx="363.9" cy="471.1" r="0.67"/><circle cx="390.6" cy="328.6" r="5.16"/><circle cx="239.4" cy="119.1" r="2.12"/><circle cx="269.1" cy="470.5" r="0.78"/><circle cx="390.6" cy="41.7" r="2.26"/><circle cx="34.3" cy="488.6" r="1.00"/><circle cx="208.1" cy="436.9" r="2.50"/><circle cx="326.1" cy="18.6" r="0.44"/><circle cx="1.8" cy="41.8" r="4.51"/><circle cx="138.4" cy="422.2" r="1.78"/><circle cx="146.0" cy="458.2" r="0.55"/><circle cx="58.3" cy="402.5" r="2.75"/><circle cx="362.0" cy="12.0" r="0.90"/><circle cx="255.7" cy="233.9" r="4.24"/><circle cx="36.4" cy="478.2" r="1.49"/><circle cx="366.2" cy="182.6" r="1.12"/><circle cx="79.3" cy="326.5" r="1.26"/><circle cx="215.9" cy="386.2" r="0.53"/><circle cx="114.2" cy="275.9" r="2.89"/><circle cx="199.7" cy="34.7" r="1.30"/><circle cx="284.0" cy="220.1" r="1.53"/><circle cx="83.6" cy="366.1" r="0.44"/><circle cx="150.0" cy="182.6" r="3.26"/><circle cx="419.9" cy="431.7" r="2.38"/><circle cx="109.1" cy="13.8" r="0.75"/><circle cx="19.0" cy="126.9" r="4.09"/><circle cx="159.4" cy="109.4" r="1.57"/><circle cx="174.6" cy="351.1" r="3.32"/><circle cx="318.7" cy="125.9" r="1.24"/><circle cx="71.8" cy="428.9" r="0.66"/><circle cx="96.8" cy="68.3" r="0.83"/><circle cx="155.7" cy="514.0" r="0.86"/><circle cx="83.6" cy="151.9" r="3.14"/><circle cx="121.2" cy="379.5" r="1.33"/><circle cx="296.7" cy="523.1" r="1.97"/><circle cx="312.3" cy="225.8" r="2.77"/><circle cx="249.8" cy="257.6" r="2.12"/><circle cx="360.1" cy="229.9" r="3.85"/><circle cx="104.1" cy="270.8" r="0.98"/><circle cx="234.7" cy="202.8" r="3.47"/><circle cx="365.0" cy="158.5" r="0.42"/><circle cx="245.5" cy="448.9" r="2.18"/><circle cx="172.1" cy="134.4" r="2.00"/><circle cx="213.5" cy="63.8" r="2.63"/><circle cx="197.7" cy="69.2" r="1.68"/><circle cx="155.2" cy="424.1" r="1.46"/><circle cx="204.0" cy="354.7" r="0.51"/><circle cx="247.9" cy="34.7" r="0.57"/><circle cx="332.8" cy="365.1" r="0.43"/><circle cx="255.1" cy="528.0" r="3.22"/><circle cx="138.3" cy="75.7" r="0.78"/><circle cx="304.1" cy="1.4" r="4.27"/><path d="M147.7,282.2 L147.7,366.2" stroke="#16120d" stroke-width="2.33" stroke-linecap="round" fill="none"/><circle cx="147.7" cy="366.2" r="2.46"/><path d="M142.7,129.4 L142.7,223.0" stroke="#16120d" stroke-width="1.79" stroke-linecap="round" fill="none"/><circle cx="142.7" cy="223.0" r="3.58"/><path d="M146.5,282.2 L146.5,356.6" stroke="#16120d" stroke-width="1.54" stroke-linecap="round" fill="none"/><circle cx="146.5" cy="356.6" r="2.40"/><path d="M166.0,129.4 L166.0,182.8" stroke="#16120d" stroke-width="3.20" stroke-linecap="round" fill="none"/><circle cx="166.0" cy="182.8" r="4.84"/>
  </g>
</svg>