<svg xmlns="http://www.w3.org/2000/svg" viewBox="0 0 1000 560" width="1000" height="560">
  <defs>
    <filter id="r6089" x="-15%" y="-15%" width="130%" height="130%">
      <feTurbulence type="fractalNoise" baseFrequency="0.0218" numOctaves="3" seed="6089" result="n"/>
      <feDisplacementMap in="SourceGraphic" in2="n" scale="21.2" xChannelSelector="R" yChannelSelector="G"/>
    </filter>
  </defs>
  <g fill="#16120d" filter="url(#r6089)">
<path d="M137.5,383.3 C291.2,361.1 355.6,450.3 516.4,363.1" stroke="#16120d" stroke-width="15.3" stroke-linecap="round" fill="none"/><path d="M137.5,375.4 C291.2,353.2 355.6,442.4 516.4,355.2" stroke="#16120d" stroke-width="1.88" stroke-linecap="round" fill="none" opacity="0.55"/><path d="M137.5,389.9 C291.2,367.8 355.6,457.0 516.4,369.8" stroke="#16120d" stroke-width="1.42" stroke-linecap="round" fill="none" opacity="0.70"/><path d="M137.5,385.4 C291.2,363.3 355.6,452.4 516.4,365.3" stroke="#16120d" stroke-width="0.80" stroke-linecap="round" fill="none" opacity="0.57"/><path d="M516.4,363.1 L581.8,321.9" stroke="#16120d" stroke-width="1.08" stroke-linecap="round" fill="none"/><circle cx="581.8" cy="321.9" r="0.75"/><path d="M516.4,363.1 L569.2,393.0" stroke="#16120d" stroke-width="1.60" stroke-linecap="round" fill="none"/><circle cx="569.2" cy="393.0" r="2.83"/><path d="M516.4,363.1 L602.5,320.2" stroke="#16120d" stroke-width="1.79" stroke-linecap="round" fill="none"/><circle cx="602.5" cy="320.2" r="1.55"/><path d="M516.4,363.1 L564.4,367.9" stroke="#16120d" stroke-width="0.63" stroke-linecap="round" fill="none"/><circle cx="564.4" cy="367.9" r="1.64"/><path d="M516.4,363.1 L594.0,410.8" stroke="#16120d" stroke-width="1.60" stroke-linecap="round" fill="none"/><circle cx="594.0" cy="410.8" r="0.70"/><path d="M516.4,363.1 L576.9,330.5" stroke="#16120d" stroke-width="0.94" stroke-linecap="round" fill="none"/><circle cx="576.9" cy="330.5" r="3.03"/><path d="M18.9,473.3 C204.6,390.2 521.1,477.6 736.3,477.7" stroke="#16120d" stroke-width="12.1" stroke-linecap="round" fill="none"/><path d="M18.9,477.0 C204.6,393.9 521.1,481.3 736.3,481.4" stroke="#16120d" stroke-width="1.00" stroke-linecap="round" fill="none" opacity="0.94"/><path d="M18.9,475.3 C204.6,392.2 521.1,479.6 736.3,479.7" stroke="#16120d" stroke-width="0.98" stroke-linecap="round" fill="none" opacity="0.84"/><path d="M18.9,466.6 C204.6,383.5 521.1,470.9 736.3,471.0" stroke="#16120d" stroke-width="1.32" stroke-linecap="round" fill="none" opacity="0.65"/><path d="M18.9,467.7 C204.6,384.6 521.1,472.0 736.3,472.1" stroke="#16120d" stroke-width="1.94" stroke-linecap="round" fill="none" opacity="0.80"/><path d="M736.3,477.7 L781.9,504.7" stroke="#16120d" stroke-width="1.50" stroke-linecap="round" fill="none"/><circle cx="781.9" cy="504.7" r="0.66"/><path d="M736.3,477.7 L770.9,479.2" stroke="#16120d" stroke-width="1.71" stroke-linecap="round" fill="none"/><circle cx="770.9" cy="479.2" r="1.19"/><path d="M736.3,477.7 L808.9,475.5" stroke="#16120d" stroke-width="0.93" stroke-linecap="round" fill="none"/><circle cx="808.9" cy="475.5" r="2.03"/><path d="M736.3,477.7 L752.6,491.4" stroke="#16120d" stroke-width="1.27" stroke-linecap="round" fill="none"/><circle cx="752.6" cy="491.4" r="2.12"/><path d="M255.5,458.6 C475.7,461.4 685.9,494.3 894.6,501.2" stroke="#16120d" stroke-width="11.1" stroke-linecap="round" fill="none"/><path d="M255.5,456.8 C475.7,459.5 685.9,492.4 894.6,499.3" stroke="#16120d" stroke-width="0.93" stroke-linecap="round" fill="none" opacity="0.83"/><path d="M255.5,456.6 C475.7,459.4 685.9,492.2 894.6,499.2" stroke="#16120d" stroke-width="0.86" stroke-linecap="round" fill="none" opacity="0.52"/><path d="M255.5,461.7 C475.7,464.5 685.9,497.4 894.6,504.3" stroke="#16120d" stroke-width="2.04" stroke-linecap="round" fill="none" opacity="0.52"/><path d="M255.5,459.3 C475.7,462.0 685.9,494.9 894.6,501.8" stroke="#16120d" stroke-width="1.84" stroke-linecap="round" fill="none" opacity="0.94"/><path d="M894.6,501.2 L935.9,471.9" stroke="#16120d" stroke-width="0.79" stroke-linecap="round" fill="none"/><circle cx="935.9" cy="471.9" r="0.73"/><path d="M894.6,501.2 L961.0,450.8" stroke="#16120d" stroke-width="1.06" stroke-linecap="round" fill="none"/><circle cx="961.0" cy="450.8" r="2.85"/><path d="M894.6,501.2 L972.7,438.4" stroke="#16120d" stroke-width="1.93" stroke-linecap="round" fill="none"/><circle cx="972.7" cy="438.4" r="2.01"/><path d="M894.6,501.2 L990.2,499.7" stroke="#16120d" stroke-width="0.54" stroke-linecap="round" fill="none"/><circle cx="990.2" cy="499.7" r="1.06"/><path d="M86.3,327.6 C344.9,308.0 435.7,300.0 679.2,280.6" stroke="#16120d" stroke-width="12.3" stroke-linecap="round" fill="none"/><path d="M86.3,323.6 C344.9,304.0 435.7,296.0 679.2,276.5" stroke="#16120d" stroke-width="1.87" stroke-linecap="round" fill="none" opacity="0.88"/><path d="M86.3,321.7 C344.9,302.1 435.7,294.2 679.2,274.7" stroke="#16120d" stroke-width="1.60" stroke-linecap="round" fill="none" opacity="0.64"/><path d="M86.3,329.9 C344.9,310.3 435.7,302.3 679.2,282.8" stroke="#16120d" stroke-width="0.66" stroke-linecap="round" fill="none" opacity="0.72"/><path d="M86.3,326.4 C344.9,306.7 435.7,298.8 679.2,279.3" stroke="#16120d" stroke-width="1.92" stroke-linecap="round" fill="none" opacity="0.72"/><path d="M86.3,326.6 C344.9,307.0 435.7,299.0 679.2,279.5" stroke="#16120d" stroke-width="1.32" stroke-linecap="round" fill="none" opacity="0.85"/><path d="M679.2,280.6 L741.6,242.0" stroke="#16120d" stroke-width="1.95" stroke-linecap="round" fill="none"/><circle cx="741.6" cy="242.0" r="1.19"/><path d="M679.2,280.6 L694.0,283.5" stroke="#16120d" stroke-width="1.24" stroke-linecap="round" fill="none"/><circle cx="694.0" cy="283.5" r="0.72"/><path d="M679.2,280.6 L746.6,237.9" stroke="#16120d" stroke-width="1.45" stroke-linecap="round" fill="none"/><circle cx="746.6" cy="237.9" r="1.00"/><path d="M679.2,280.6 L761.5,248.8" stroke="#16120d" stroke-width="1.77" stroke-linecap="round" fill="none"/><circle cx="761.5" cy="248.8" r="2.03"/><path d="M679.2,280.6 L739.7,261.7" stroke="#16120d" stroke-width="0.53" stroke-linecap="round" fill="none"/><circle cx="739.7" cy="261.7" r="3.20"/><path d="M679.2,280.6 L704.0,305.3" stroke="#16120d" stroke-width="1.98" stroke-linecap="round" fill="none"/><circle cx="704.0" cy="305.3" r="1.71"/><path d="M98.0,221.5 C279.8,254.3 446.2,140.8 677.4,241.9" stroke="#16120d" stroke-width="24.3" stroke-linecap="round" fill="none"/><path d="M98.0,214.4 C279.8,247.2 446.2,133.7 677.4,234.7" stroke="#16120d" stroke-width="1.81" stroke-linecap="round" fill="none" opacity="0.98"/><path d="M98.0,230.4 C279.8,263.2 446.2,149.7 677.4,250.7" stroke="#16120d" stroke-width="1.57" stroke-linecap="round" fill="none" opacity="0.87"/><path d="M98.0,222.2 C279.8,255.0 446.2,141.5 677.4,242.6" stroke="#16120d" stroke-width="1.28" stroke-linecap="round" fill="none" opacity="0.59"/><path d="M98.0,210.4 C279.8,243.2 446.2,129.7 677.4,230.7" stroke="#16120d" stroke-width="0.60" stroke-linecap="round" fill="none" opacity="0.58"/><path d="M98.0,231.5 C279.8,264.3 446.2,150.8 677.4,251.8" stroke="#16120d" stroke-width="1.01" stroke-linecap="round" fill="none" opacity="0.60"/><path d="M677.4,241.9 L712.0,209.5" stroke="#16120d" stroke-width="0.92" stroke-linecap="round" fill="none"/><circle cx="712.0" cy="209.5" r="1.94"/><path d="M677.4,241.9 L775.1,268.2" stroke="#16120d" stroke-width="1.91" stroke-linecap="round" fill="none"/><circle cx="775.1" cy="268.2" r="0.96"/><path d="M677.4,241.9 L697.1,236.7" stroke="#16120d" stroke-width="0.60" stroke-linecap="round" fill="none"/><circle cx="697.1" cy="236.7" r="2.19"/><path d="M677.4,241.9 L694.0,256.0" stroke="#16120d" stroke-width="1.97" stroke-linecap="round" fill="none"/><circle cx="694.0" cy="256.0" r="2.73"/><path d="M677.4,241.9 L738.8,279.4" stroke="#16120d" stroke-width="1.99" stroke-linecap="round" fill="none"/><circle cx="738.8" cy="279.4" r="1.91"/><path d="M677.4,241.9 L726.1,259.3" stroke="#16120d" stroke-width="0.66" stroke-linecap="round" fill="none"/><circle cx="726.1" cy="259.3" r="2.36"/><path d="M677.4,241.9 L741.8,303.6" stroke="#16120d" stroke-width="0.60" stroke-linecap="round" fill="none"/><circle cx="741.8" cy="303.6" r="2.62"/><path d="M677.4,241.9 L746.9,250.8" stroke="#16120d" stroke-width="0.78" stroke-linecap="round" fill="none"/><circle cx="746.9" cy="250.8" r="2.24"/><path d="M237.9,362.0 C451.5,388.8 586.8,400.7 802.3,372.0" stroke="#16120d" stroke-width="21.0" stroke-linecap="round" fill="none"/><path d="M237.9,357.0 C451.5,383.8 586.8,395.7 802.3,366.9" stroke="#16120d" stroke-width="2.06" stroke-linecap="round" fill="none" opacity="0.60"/><path d="M237.9,348.7 C451.5,375.4 586.8,387.3 802.3,358.6" stroke="#16120d" stroke-width="1.25" stroke-linecap="round" fill="none" opacity="0.65"/><path d="M237.9,355.7 C451.5,382.5 586.8,394.4 802.3,365.7" stroke="#16120d" stroke-width="0.64" stroke-linecap="round" fill="none" opacity="0.71"/><path d="M802.3,372.0 L828.8,355.0" stroke="#16120d" stroke-width="0.81" stroke-linecap="round" fill="none"/><circle cx="828.8" cy="355.0" r="2.45"/><path d="M802.3,372.0 L861.6,386.5" stroke="#16120d" stroke-width="1.16" stroke-linecap="round" fill="none"/><circle cx="861.6" cy="386.5" r="0.74"/><path d="M802.3,372.0 L820.1,362.2" stroke="#16120d" stroke-width="1.23" stroke-linecap="round" fill="none"/><circle cx="820.1" cy="362.2" r="1.01"/><path d="M802.3,372.0 L850.5,374.9" stroke="#16120d" stroke-width="1.19" stroke-linecap="round" fill="none"/><circle cx="850.5" cy="374.9" r="2.26"/><path d="M802.3,372.0 L878.1,380.7" stroke="#16120d" stroke-width="1.58" stroke-linecap="round" fill="none"/><circle cx="878.1" cy="380.7" r="0.81"/><path d="M802.3,372.0 L830.1,386.2" stroke="#16120d" stroke-width="1.32" stroke-linecap="round" fill="none"/><circle cx="830.1" cy="386.2" r="2.65"/><path d="M802.3,372.0 L821.1,381.1" stroke="#16120d" stroke-width="0.82" stroke-linecap="round" fill="none"/><circle cx="821.1" cy="381.1" r="1.73"/><path d="M802.3,372.0 L882.3,434.8" stroke="#16120d" stroke-width="0.62" stroke-linecap="round" fill="none"/><circle cx="882.3" cy="434.8" r="2.02"/><path d="M802.3,372.0 L857.1,352.5" stroke="#16120d" stroke-width="1.56" stroke-linecap="round" fill="none"/><circle cx="857.1" cy="352.5" r="0.65"/><path d="M802.3,372.0 L830.7,381.4" stroke="#16120d" stroke-width="0.66" stroke-linecap="round" fill="none"/><circle cx="830.7" cy="381.4" r="1.45"/><path d="M251.5,458.3 C465.9,471.2 550.9,479.0 734.7,511.7" stroke="#16120d" stroke-width="6.0" stroke-linecap="round" fill="none"/><path d="M251.5,459.8 C465.9,472.7 550.9,480.5 734.7,513.3" stroke="#16120d" stroke-width="1.48" stroke-linecap="round" fill="none" opacity="0.83"/><path d="M251.5,460.5 C465.9,473.4 550.9,481.2 734.7,514.0" stroke="#16120d" stroke-width="1.80" stroke-linecap="round" fill="none" opacity="0.66"/><path d="M251.5,455.7 C465.9,468.6 550.9,476.3 734.7,509.1" stroke="#16120d" stroke-width="2.15" stroke-linecap="round" fill="none" opacity="0.95"/><path d="M251.5,454.6 C465.9,467.5 550.9,475.3 734.7,508.1" stroke="#16120d" stroke-width="0.59" stroke-linecap="round" fill="none" opacity="0.78"/><path d="M251.5,456.0 C465.9,468.9 550.9,476.7 734.7,509.4" stroke="#16120d" stroke-width="0.45" stroke-linecap="round" fill="none" opacity="0.82"/><path d="M734.7,511.7 L773.6,551.5" stroke="#16120d" stroke-width="1.17" stroke-linecap="round" fill="none"/><circle cx="773.6" cy="551.5" r="1.32"/><path d="M734.7,511.7 L819.9,556.8" stroke="#16120d" stroke-width="1.81" stroke-linecap="round" fill="none"/><circle cx="819.9" cy="556.8" r="1.13"/><path d="M734.7,511.7 L779.4,482.7" stroke="#16120d" stroke-width="0.95" stroke-linecap="round" fill="none"/><circle cx="779.4" cy="482.7" r="0.74"/><path d="M734.7,511.7 L824.1,475.4" stroke="#16120d" stroke-width="1.46" stroke-linecap="round" fill="none"/><circle cx="824.1" cy="475.4" r="0.85"/><path d="M734.7,511.7 L768.6,517.5" stroke="#16120d" stroke-width="1.35" stroke-linecap="round" fill="none"/><circle cx="768.6" cy="517.5" r="1.12"/><path d="M734.7,511.7 L821.1,503.9" stroke="#16120d" stroke-width="0.64" stroke-linecap="round" fill="none"/><circle cx="821.1" cy="503.9" r="0.97"/><path d="M734.7,511.7 L801.2,454.5" stroke="#16120d" stroke-width="1.28" stroke-linecap="round" fill="none"/><circle cx="801.2" cy="454.5" r="0.94"/><path d="M734.7,511.7 L764.6,533.8" stroke="#16120d" stroke-width="2.19" stroke-linecap="round" fill="none"/><circle cx="764.6" cy="533.8" r="0.70"/><path d="M734.7,511.7 L806.5,546.9" stroke="#16120d" stroke-width="2.07" stroke-linecap="round" fill="none"/><circle cx="806.5" cy="546.9" r="1.61"/><path d="M734.7,511.7 L777.5,486.6" stroke="#16120d" stroke-width="1.79" stroke-linecap="round" fill="none"/><circle cx="777.5" cy="486.6" r="1.57"/><path d="M254.2,299.5 C439.0,223.4 626.6,361.0 822.2,248.1" stroke="#16120d" stroke-width="15.7" stroke-linecap="round" fill="none"/><path d="M254.2,308.0 C439.0,231.8 626.6,369.5 822.2,256.5" stroke="#16120d" stroke-width="1.31" stroke-linecap="round" fill="none" opacity="0.59"/><path d="M254.2,308.8 C439.0,232.6 626.6,370.3 822.2,257.3" stroke="#16120d" stroke-width="0.57" stroke-linecap="round" fill="none" opacity="0.70"/><path d="M254.2,300.6 C439.0,224.5 626.6,362.1 822.2,249.2" stroke="#16120d" stroke-width="0.68" stroke-linecap="round" fill="none" opacity="0.73"/><path d="M254.2,306.6 C439.0,230.5 626.6,368.1 822.2,255.2" stroke="#16120d" stroke-width="1.94" stroke-linecap="round" fill="none" opacity="0.72"/><path d="M254.2,301.2 C439.0,225.1 626.6,362.8 822.2,249.8" stroke="#16120d" stroke-width="0.92" stroke-linecap="round" fill="none" opacity="0.93"/><path d="M822.2,248.1 L865.2,253.0" stroke="#16120d" stroke-width="0.63" stroke-linecap="round" fill="none"/><circle cx="865.2" cy="253.0" r="1.15"/><path d="M822.2,248.1 L839.2,244.5" stroke="#16120d" stroke-width="1.05" stroke-linecap="round" fill="none"/><circle cx="839.2" cy="244.5" r="1.19"/><path d="M822.2,248.1 L875.1,203.1" stroke="#16120d" stroke-width="0.98" stroke-linecap="round" fill="none"/><circle cx="875.1" cy="203.1" r="1.99"/><path d="M822.2,248.1 L865.4,234.7" stroke="#16120d" stroke-width="1.92" stroke-linecap="round" fill="none"/><circle cx="865.4" cy="234.7" r="2.63"/><path d="M822.2,248.1 L894.9,265.4" stroke="#16120d" stroke-width="1.39" stroke-linecap="round" fill="none"/><circle cx="894.9" cy="265.4" r="2.12"/><path d="M822.2,248.1 L876.5,271.4" stroke="#16120d" stroke-width="1.11" stroke-linecap="round" fill="none"/><circle cx="876.5" cy="271.4" r="1.53"/><path d="M822.2,248.1 L871.7,287.0" stroke="#16120d" stroke-width="0.89" stroke-linecap="round" fill="none"/><circle cx="871.7" cy="287.0" r="2.11"/><path d="M822.2,248.1 L902.3,213.1" stroke="#16120d" stroke-width="2.12" stroke-linecap="round" fill="none"/><circle cx="902.3" cy="213.1" r="1.10"/><path d="M822.2,248.1 L897.4,208.2" stroke="#16120d" stroke-width="1.17" stroke-linecap="round" fill="none"/><circle cx="897.4" cy="208.2" r="2.42"/><path d="M147.3,343.5 C294.4,341.0 457.7,419.6 659.8,379.5" stroke="#16120d" stroke-width="18.9" stroke-linecap="round" fill="none"/><path d="M147.3,332.0 C294.4,329.6 457.7,408.2 659.8,368.1" stroke="#16120d" stroke-width="0.85" stroke-linecap="round" fill="none" opacity="0.75"/><path d="M147.3,348.1 C294.4,345.6 457.7,424.2 659.8,384.2" stroke="#16120d" stroke-width="0.51" stroke-linecap="round" fill="none" opacity="0.67"/><path d="M659.8,379.5 L725.2,416.5" stroke="#16120d" stroke-width="1.82" stroke-linecap="round" fill="none"/><circle cx="725.2" cy="416.5" r="1.71"/><path d="M659.8,379.5 L723.8,404.1" stroke="#16120d" stroke-width="0.98" stroke-linecap="round" fill="none"/><circle cx="723.8" cy="404.1" r="0.74"/><path d="M659.8,379.5 L707.0,425.9" stroke="#16120d" stroke-width="1.04" stroke-linecap="round" fill="none"/><circle cx="707.0" cy="425.9" r="2.42"/><path d="M659.8,379.5 L719.6,388.1" stroke="#16120d" stroke-width="1.67" stroke-linecap="round" fill="none"/><circle cx="719.6" cy="388.1" r="2.77"/><path d="M659.8,379.5 L732.4,312.7" stroke="#16120d" stroke-width="1.56" stroke-linecap="round" fill="none"/><circle cx="732.4" cy="312.7" r="2.90"/><path d="M659.8,379.5 L750.7,421.3" stroke="#16120d" stroke-width="0.90" stroke-linecap="round" fill="none"/><circle cx="750.7" cy="421.3" r="1.83"/><path d="M659.8,379.5 L745.0,395.9" stroke="#16120d" stroke-width="2.01" stroke-linecap="round" fill="none"/><circle cx="745.0" cy="395.9" r="1.07"/><path d="M659.8,379.5 L727.1,329.8" stroke="#16120d" stroke-width="2.03" stroke-linecap="round" fill="none"/><circle cx="727.1" cy="329.8" r="2.38"/><path d="M659.8,379.5 L677.7,373.2" stroke="#16120d" stroke-width="1.12" stroke-linecap="round" fill="none"/><circle cx="677.7" cy="373.2" r="3.15"/><path d="M659.8,379.5 L720.5,430.9" stroke="#16120d" stroke-width="1.79" stroke-linecap="round" fill="none"/><circle cx="720.5" cy="430.9" r="1.95"/><path d="M223.2,319.1 C348.1,256.0 418.1,358.5 548.1,311.0" stroke="#16120d" stroke-width="24.3" stroke-linecap="round" fill="none"/><path d="M223.2,320.4 C348.1,257.2 418.1,359.7 548.1,312.3" stroke="#16120d" stroke-width="0.53" stroke-linecap="round" fill="none" opacity="0.73"/><path d="M223.2,323.0 C348.1,259.9 418.1,362.4 548.1,314.9" stroke="#16120d" stroke-width="0.44" stroke-linecap="round" fill="none" opacity="0.84"/><path d="M223.2,304.9 C348.1,241.7 418.1,344.2 548.1,296.8" stroke="#16120d" stroke-width="1.81" stroke-linecap="round" fill="none" opacity="0.61"/><path d="M223.2,312.2 C348.1,249.0 418.1,351.5 548.1,304.0" stroke="#16120d" stroke-width="1.51" stroke-linecap="round" fill="none" opacity="0.50"/><path d="M223.2,328.4 C348.1,265.2 418.1,367.7 548.1,320.3" stroke="#16120d" stroke-width="2.11" stroke-linecap="round" fill="none" opacity="0.88"/><path d="M548.1,311.0 L578.7,325.4" stroke="#16120d" stroke-width="1.51" stroke-linecap="round" fill="none"/><circle cx="578.7" cy="325.4" r="3.15"/><path d="M548.1,311.0 L623.5,345.9" stroke="#16120d" stroke-width="1.81" stroke-linecap="round" fill="none"/><circle cx="623.5" cy="345.9" r="3.02"/><path d="M548.1,311.0 L623.9,374.0" stroke="#16120d" stroke-width="1.87" stroke-linecap="round" fill="none"/><circle cx="623.9" cy="374.0" r="1.29"/><path d="M548.1,311.0 L595.7,326.7" stroke="#16120d" stroke-width="1.25" stroke-linecap="round" fill="none"/><circle cx="595.7" cy="326.7" r="2.81"/><path d="M548.1,311.0 L623.4,374.3" stroke="#16120d" stroke-width="1.99" stroke-linecap="round" fill="none"/><circle cx="623.4" cy="374.3" r="2.78"/><path d="M548.1,311.0 L630.8,285.3" stroke="#16120d" stroke-width="0.89" stroke-linecap="round" fill="none"/><circle cx="630.8" cy="285.3" r="2.94"/><path d="M548.1,311.0 L565.3,328.5" stroke="#16120d" stroke-width="0.82" stroke-linecap="round" fill="none"/><circle cx="565.3" cy="328.5" r="1.37"/><path d="M548.1,311.0 L572.3,324.4" stroke="#16120d" stroke-width="0.82" stroke-linecap="round" fill="none"/><circle cx="572.3" cy="324.4" r="1.04"/><path d="M548.1,311.0 L578.0,307.8" stroke="#16120d" stroke-width="2.15" stroke-linecap="round" fill="none"/><circle cx="578.0" cy="307.8" r="1.60"/><circle cx="450.4" cy="367.5" r="0.97"/><circle cx="281.1" cy="217.8" r="1.75"/><circle cx="150.8" cy="257.2" r="0.67"/><circle cx="250.6" cy="344.9" r="0.96"/><circle cx="508.7" cy="522.5" r="1.19"/><circle cx="324.8" cy="360.6" r="1.06"/><circle cx="188.6" cy="68.9" r="0.65"/><circle cx="435.7" cy="218.5" r="1.78"/><circle cx="162.4" cy="225.2" r="0.42"/><circle cx="588.0" cy="160.9" r="2.85"/><circle cx="63.6" cy="108.8" r="1.32"/><circle cx="723.3" cy="517.2" r="0.53"/><circle cx="159.0" cy="263.2" r="0.79"/><circle cx="557.5" cy="374.5" r="0.61"/><circle cx="191.5" cy="220.2" r="2.84"/><circle cx="781.4" cy="261.2" r="1.38"/><circle cx="898.1" cy="198.5" r="1.03"/><circle cx="806.1" cy="18.9" r="1.22"/><circle cx="266.7" cy="98.7" r="2.94"/><circle cx="474.9" cy="301.8" r="1.75"/><circle cx="259.1" cy="70.0" r="1.02"/><circle cx="119.5" cy="420.6" r="1.23"/><circle cx="281.5" cy="94.2" r="0.47"/><circle cx="814.4" cy="26.2" r="0.42"/><circle cx="737.9" cy="82.0" r="0.73"/><circle cx="588.1" cy="282.0" r="0.69"/><circle cx="367.3" cy="193.1" r="3.93"/><circle cx="477.3" cy="381.1" r="0.50"/><circle cx="796.2" cy="70.9" r="1.13"/><circle cx="798.2" cy="296.0" r="1.18"/><circle cx="444.8" cy="23.6" r="1.79"/><circle cx="630.6" cy="461.6" r="1.30"/><circle cx="33.3" cy="313.8" r="0.96"/><circle cx="570.0" cy="183.4" r="1.95"/><circle cx="439.8" cy="431.2" r="0.89"/><circle cx="293.0" cy="161.2" r="0.60"/><circle cx="470.2" cy="423.6" r="1.29"/><circle cx="739.6" cy="116.1" r="1.17"/><circle cx="305.6" cy="499.7" r="0.44"/><circle cx="606.3" cy="451.7" r="0.92"/><circle cx="699.7" cy="315.1" r="0.44"/><circle cx="235.0" cy="12.1" r="1.18"/><circle cx="324.0" cy="389.0" r="0.63"/><circle cx="54.3" cy="74.4" r="0.80"/><circle cx="75.1" cy="198.8" r="1.40"/><circle cx="486.9" cy="124.3" r="1.11"/><circle cx="677.1" cy="53.3" r="1.24"/><circle cx="804.9" cy="524.3" r="0.72"/><circle cx="640.3" cy="522.6" r="1.85"/><circle cx="939.6" cy="191.2" r="2.48"/><circle cx="864.8" cy="346.8" r="4.45"/><circle cx="223.7" cy="355.0" r="0.94"/><circle cx="215.3" cy="310.4" r="2.17"/><circle cx="64.2" cy="333.8" r="0.65"/><circle cx="108.6" cy="323.3" r="0.46"/><circle cx="120.9" cy="337.4" r="2.45"/><circle cx="733.5" cy="180.1" r="0.76"/><circle cx="524.7" cy="345.0" r="4.19"/><circle cx="741.0" cy="222.4" r="1.02"/><circle cx="227.6" cy="92.7" r="1.92"/><circle cx="391.5" cy="482.5" r="0.98"/><circle cx="689.5" cy="398.0" r="2.55"/><circle cx="9.7" cy="111.0" r="0.59"/><circle cx="993.1" cy="195.0" r="4.57"/><circle cx="637.8" cy="194.1" r="2.42"/><circle cx="744.8" cy="111.8" r="2.14"/><circle cx="692.3" cy="5.6" r="1.51"/><circle cx="541.7" cy="91.5" r="1.41"/><circle cx="731.2" cy="411.0" r="0.94"/><circle cx="775.1" cy="154.8" r="2.72"/><circle cx="214.6" cy="175.9" r="0.86"/><circle cx="623.4" cy="215.9" r="0.44"/><circle cx="280.6" cy="484.9" r="1.90"/><circle cx="664.6" cy="373.1" r="0.86"/><circle cx="697.7" cy="125.7" r="0.92"/><circle cx="812.6" cy="360.7" r="0.49"/><circle cx="473.8" cy="500.2" r="2.85"/><circle cx="944.9" cy="305.2" r="0.95"/><circle cx="120.9" cy="317.7" r="0.98"/><circle cx="30.7" cy="104.2" r="1.18"/><circle cx="554.9" cy="179.1" r="0.59"/><circle cx="197.9" cy="78.6" r="0.93"/><circle cx="297.1" cy="263.7" r="1.79"/><circle cx="459.6" cy="475.6" r="2.16"/><circle cx="980.4" cy="382.4" r="2.05"/><circle cx="93.9" cy="392.6" r="0.60"/><circle cx="238.7" cy="2.8" r="3.13"/><circle cx="781.7" cy="544.3" r="1.72"/><circle cx="311.5" cy="517.0" r="0.54"/><circle cx="217.4" cy="100.0" r="2.08"/><circle cx="147.4" cy="202.3" r="0.61"/><circle cx="301.5" cy="306.7" r="1.44"/><circle cx="246.0" cy="418.6" r="0.46"/><circle cx="244.4" cy="501.7" r="0.61"/><circle cx="824.4" cy="455.6" r="0.59"/><circle cx="193.0" cy="121.9" r="0.59"/><circle cx="416.2" cy="196.4" r="3.04"/><circle cx="906.3" cy="163.7" r="2.43"/><circle cx="738.4" cy="251.1" r="1.69"/><circle cx="187.5" cy="362.5" r="1.06"/><circle cx="287.2" cy="303.4" r="4.17"/><circle cx="894.2" cy="9.8" r="1.53"/><circle cx="98.5" cy="120.3" r="2.77"/><circle cx="710.7" cy="355.2" r="3.06"/><circle cx="371.7" cy="149.1" r="2.30"/><circle cx="492.3" cy="557.2" r="2.92"/><circle cx="755.6" cy="148.2" r="2.86"/><circle cx="530.2" cy="99.8" r="2.31"/><circle cx="724.0" cy="241.4" r="1.51"/><circle cx="989.6" cy="431.6" r="3.80"/><circle cx="861.4" cy="116.0" r="1.82"/><circle cx="245.6" cy="187.0" r="0.54"/><circle cx="336.6" cy="172.9" r="2.22"/><circle cx="40.6" cy="86.8" r="1.08"/><circle cx="67.9" cy="320.3" r="1.12"/><circle cx="158.2" cy="523.1" r="0.76"/><circle cx="185.6" cy="556.2" r="1.71"/><circle cx="432.6" cy="546.6" r="0.66"/><circle cx="574.7" cy="135.0" r="0.95"/><circle cx="875.4" cy="465.5" r="0.78"/><circle cx="838.3" cy="405.2" r="0.59"/><circle cx="938.9" cy="223.3" r="0.46"/><circle cx="393.7" cy="25.8" r="3.65"/><circle cx="960.6" cy="542.6" r="2.61"/><circle cx="500.7" cy="428.7" r="1.13"/><circle cx="863.8" cy="163.6" r="3.21"/><circle cx="791.2" cy="504.2" r="1.23"/><circle cx="873.1" cy="278.4" r="1.43"/><circle cx="93.9" cy="309.3" r="1.51"/><circle cx="454.0" cy="541.8" r="1.07"/><circle cx="617.1" cy="251.0" r="1.01"/><circle cx="757.7" cy="309.9" r="0.63"/><circle cx="667.7" cy="509.8" r="4.56"/><circle cx="268.0" cy="446.2" r="0.62"/><circle cx="938.9" cy="488.2" r="0.50"/><circle cx="668.7" cy="43.1" r="0.52"/><circle cx="881.1" cy="363.9" r="0.45"/>
  </g>
</svg>